<?xml version="1.0" encoding="UTF-8" standalone="no"?>
<!-- Created with Inkscape (http://www.inkscape.org/) -->

<svg
   version="1.1"
   id="svg1"
   width="1000"
   height="1000"
   viewBox="0 0 1000 1000"
   xml:space="preserve"
   xmlns="http://www.w3.org/2000/svg"
   xmlns:svg="http://www.w3.org/2000/svg"><defs
     id="defs1" /><g
     id="g2"><path
       style="fill:#000000;stroke-width:0.749805"
       d="m 488.94327,698.03351 c -2.47436,-0.92564 -10.23484,-5.00896 -17.24552,-9.07405 -60.60819,-35.14312 -175.08564,-101.83875 -206.94617,-120.56875 -17.40333,-10.23099 -22.15917,-15.13798 -25.61582,-26.43002 -1.31499,-4.29576 -1.37716,-10.70966 -1.37716,-142.08805 0,-131.42453 0.0618,-137.79078 1.37839,-142.08804 1.99078,-6.49756 4.5972,-10.90865 8.99863,-15.22926 4.54469,-4.46124 7.49877,-6.21147 171.07579,-101.3592 76.43129,-44.457746 68.9761,-40.56707 78.70889,-41.07616 12.05891,-0.630757 2.45936,-5.655629 121.86394,63.78956 46.3253,26.94259 109.3262,63.69642 123.70341,72.16681 8.72417,5.13988 14.08416,11.83794 17.2916,21.60829 1.43593,4.37406 1.46775,7.47266 1.45982,142.12439 -0.009,151.23443 0.33483,140.10763 -4.61548,149.39537 -2.73657,5.13433 -7.21185,10.05912 -11.73664,12.9155 -4.8942,3.08958 -148.73114,86.96192 -216.57624,126.28715 -7.90257,4.58059 -16.41158,9.01667 -18.90891,9.85797 -6.33671,2.13468 -15.39466,2.03695 -21.45853,-0.23151 z M 482.94483,531.45314 V 409.99501 l -4.12393,-2.7233 c -4.38068,-2.89285 -19.02053,-11.4653 -110.22133,-64.54072 -90.70577,-52.78734 -93.809,-54.57929 -94.51813,-54.57929 -0.96676,0 -1.25817,43.85888 -0.9981,150.22055 0.16562,67.73694 0.45675,93.13723 1.07603,93.88341 1.36583,1.64573 16.52599,10.26434 17.08025,9.71018 0.27772,-0.27766 0.67364,-49.4578 0.87984,-109.28919 0.24872,-72.17043 0.62954,-108.86921 1.13144,-109.03648 0.82965,-0.27649 3.94032,1.50152 74.97377,42.85402 66.42553,38.66998 90.28425,52.72362 93.16327,54.87649 l 2.43686,1.82223 0.1067,75.12979 c 0.0587,41.32139 0.31175,90.94983 0.56235,110.28544 l 0.45566,35.15564 7.87295,4.76897 c 4.33013,2.62293 8.37907,4.68113 8.99766,4.57375 0.99431,-0.17258 1.12471,-14.2772 1.12471,-121.65336 z m 43.15229,117.67101 c 3.89655,-2.30041 7.67511,-4.7146 8.3968,-5.36484 1.23823,-1.11566 1.31216,-7.31916 1.31216,-110.10136 0,-59.9055 0.20576,-109.45529 0.45725,-110.11065 0.63275,-1.64893 5.70257,-4.70314 70.02442,-42.18468 94.61474,-55.13378 99.52314,-57.97009 100.32063,-57.97009 0.52302,0 0.8522,34.92758 1.02432,108.6844 0.17424,74.66835 0.50034,108.93106 1.0419,109.47251 0.5511,0.55098 3.04541,-0.54638 8.28987,-3.64707 4.12587,-2.43937 7.9888,-5.02218 8.58428,-5.7396 0.9313,-1.12198 1.11487,-17.61888 1.31278,-117.97145 0.12655,-64.16688 0.0127,-118.80066 -0.25303,-121.4084 -0.39152,-3.8425 -0.70138,-4.65758 -1.6345,-4.29951 -1.95828,0.75147 -164.65371,95.51162 -193.37223,112.62753 l -14.32669,8.53853 -0.5551,96.24368 c -0.5816,100.83876 -0.13273,147.41358 1.42072,147.41358 0.47948,0 4.05986,-1.88217 7.95642,-4.18258 z m -72.95154,-62.15412 c 0.14789,-37.24018 -0.0197,-48.84766 -0.7173,-49.68825 -1.38668,-1.67084 -5.89306,-4.41273 -39.96512,-24.31659 -77.58107,-45.3205 -106.83273,-62.10581 -108.23142,-62.10581 -0.64492,0 -0.8652,12.49443 -0.8652,49.07407 v 49.07407 l 2.43686,1.82349 c 4.51618,3.37945 14.7071,8.90135 15.51096,8.40455 0.54375,-0.33606 0.81406,-11.74534 0.85,-35.8768 0.029,-19.46122 0.28887,-35.98137 0.57752,-36.71146 0.45404,-1.14841 2.80596,-0.0231 17.44084,8.34499 18.84369,10.77463 65.65471,38.0679 82.40281,48.04515 l 10.87217,6.4768 0.3749,37.5354 c 0.3127,31.30773 0.55547,37.75284 1.46323,38.84606 1.42623,1.71759 15.93669,10.22097 16.90699,9.90779 0.48703,-0.1572 0.81743,-17.2716 0.94276,-48.83346 z m 101.96754,45.19972 c 3.8635,-2.14031 7.84819,-4.65479 8.85486,-5.58774 l 1.8303,-1.69627 v -37.02045 -37.02044 l 1.68706,-1.53029 c 2.0249,-1.83673 9.5033,-6.27407 63.29249,-37.55486 46.022,-26.76383 45.61484,-26.53611 46.27143,-25.87952 0.25848,0.25848 0.47513,16.52517 0.48144,36.14819 0.006,19.62302 0.29734,36.12918 0.64671,36.68036 0.72276,1.14025 5.22053,-0.88487 13.30877,-5.99227 3.60191,-2.27447 4.69522,-3.40536 5.06118,-5.23514 0.71831,-3.59158 0.53034,-95.36072 -0.19769,-96.50956 -0.49113,-0.775 -11.51831,5.3132 -47.03878,25.97055 -82.80171,48.15429 -99.61164,58.01339 -100.94558,59.20495 -1.22452,1.09383 -1.31216,4.4695 -1.31216,50.54303 0,27.154 0.23298,49.37092 0.51772,49.37092 0.28473,0 3.67875,-1.75116 7.54225,-3.89146 z M 453.32753,476.35031 v -44.90223 l -1.68706,-1.85721 c -1.50505,-1.65684 -16.70902,-10.68375 -81.91619,-48.63537 -47.047,-27.38211 -64.45155,-37.31823 -65.36828,-37.31823 -0.80849,0 -0.98759,8.19414 -0.97923,44.80085 0.006,24.64046 0.1967,45.49505 0.4246,46.34353 0.26473,0.98557 3.57806,3.38961 9.17488,6.65693 91.24631,53.26808 138.9728,80.66592 139.7171,80.20591 0.3488,-0.21557 0.63418,-20.59795 0.63418,-45.29418 z m -25.49337,7.74535 c -12.66567,-7.09785 -84.84653,-49.13745 -96.72484,-56.33451 -9.86589,-5.97774 -8.99766,-3.6097 -8.99766,-24.54043 0,-9.97419 0.21438,-19.69896 0.4764,-21.61061 l 0.47641,-3.47572 4.20988,2.39139 c 37.99467,21.58262 102.69643,59.5571 104.87119,61.55054 1.67477,1.53514 1.68706,1.70397 1.68706,23.16005 0,11.88751 -0.25306,21.60845 -0.56235,21.60209 -0.3093,-0.006 -2.75553,-1.24062 -5.43609,-2.7428 z m 160.08337,14.92528 C 665.09479,454.3362 692.78049,438.0036 695.32709,435.6569 l 1.68706,-1.55463 v -44.88113 c 0,-37.44553 -0.17125,-44.94685 -1.03365,-45.27778 -0.56851,-0.21816 -7.90723,3.55319 -16.30826,8.38078 -33.25322,19.10871 -114.8144,66.6552 -125.87084,73.37705 l -6.37334,3.87471 -0.19448,45.32022 c -0.10697,24.92613 -0.0358,45.73514 0.15808,46.24226 0.39249,1.02647 3.18714,-0.49874 40.52587,-22.11744 z m -21.61938,-12.67079 c -0.27493,-0.27493 -0.49987,-9.87236 -0.49987,-21.32763 0,-20.54495 0.0229,-20.85316 1.68706,-22.69864 2.38385,-2.64359 106.85661,-63.44578 109.01508,-63.44578 0.86952,0 1.00863,3.62063 0.84267,21.9318 l -0.19877,21.93179 -8.24786,4.95772 c -19.11996,11.49286 -101.18163,59.15061 -101.85119,59.15061 -0.13598,0 -0.47219,-0.22494 -0.74712,-0.49987 z M 512.04111,373.14921 c 25.41267,-14.45083 179.02026,-103.99065 191.61817,-111.69667 2.62383,-1.60497 4.817,-3.24226 4.87373,-3.63842 0.0567,-0.39615 -3.271,-2.72247 -7.39493,-5.16959 -14.47455,-8.58912 -157.43222,-91.9153 -187.27577,-109.15801 -7.89262,-4.56012 -13.78735,-7.51753 -14.46537,-7.25736 -2.01836,0.77453 -195.27794,112.88304 -204.83927,118.82581 -1.75193,1.0889 -3.18594,2.39198 -3.18667,2.89571 -0.002,1.27098 14.88453,9.95628 17.06482,9.95628 2.04379,0 12.5834,-5.93718 72.16063,-40.64958 86.43451,-50.36069 111.85606,-65.11138 114.81881,-66.62285 l 3.02321,-1.54233 3.87516,2.01314 c 5.14952,2.67516 3.92382,1.97038 51.11287,29.39021 94.80043,55.08506 115.84487,67.49419 115.84487,68.30943 0,0.32621 -37.36841,22.38656 -83.0409,49.02301 -99.18389,57.84459 -103.66054,60.49239 -103.66054,61.31185 0,1.25633 15.0308,10.4707 17.0994,10.48249 0.53823,0.003 6.10553,-2.90984 12.37178,-6.47312 z M 473.53868,360.5249 c 3.25,-1.64689 64.26712,-37.01852 76.32624,-44.24631 2.57746,-1.54483 4.68628,-3.09407 4.68628,-3.44274 0,-0.7956 -11.29575,-7.53091 -73.10598,-43.5908 -63.99497,-37.33447 -74.44021,-43.32716 -75.519,-43.32716 -0.96073,0 -11.26961,5.84344 -49.32353,27.95839 -30.87838,17.94489 -35.37879,20.73996 -35.03834,21.76132 0.29364,0.88094 7.15681,5.25249 13.23969,8.43314 3.44819,1.80301 3.80908,1.84927 6.30197,0.80767 1.45438,-0.60768 14.01769,-7.74436 27.91847,-15.85929 13.90079,-8.11493 27.61939,-15.97946 30.48579,-17.47674 l 5.21164,-2.72232 3.49572,1.89724 c 1.92265,1.04348 11.93103,6.81215 22.24085,12.81926 10.30982,6.00712 32.17898,18.73623 48.59813,28.28692 34.06932,19.81742 35.75493,20.8436 35.75493,21.76728 0,0.58231 -13.51984,8.67518 -53.4236,31.97891 -4.84562,2.82983 -8.81021,5.53587 -8.81021,6.01339 0,0.47754 0.49465,1.27877 1.09923,1.78053 1.01588,0.8431 15.50534,9.0188 15.98366,9.0188 0.11686,0 1.86199,-0.83587 3.87806,-1.85749 z m 126.1401,-73.19857 c 41.89837,-24.26705 46.34863,-27.00229 46.34863,-28.48707 0,-0.71695 -10.91117,-7.26607 -49.48713,-29.7032 -16.28951,-9.47456 -41.25802,-23.99633 -55.48556,-32.27061 -32.27829,-18.77198 -42.01165,-24.18372 -43.49597,-24.18372 -2.24653,0 -77.97244,44.14654 -77.97244,45.45622 0,0.4935 2.10882,2.22613 4.68628,3.85031 7.81103,4.92209 132.81624,77.85851 139.90633,81.63073 l 3.25437,1.73146 4.38295,-2.21251 c 2.41063,-1.21688 14.94878,-8.3321 27.86254,-15.81161 z m -35.66482,-7.77687 c -4.62848,-2.45545 -52.84445,-30.53444 -88.36837,-51.46207 -9.37569,-5.52335 -17.05182,-10.27968 -17.05806,-10.56962 -0.0106,-0.49331 11.77053,-7.62391 28.69521,-17.3679 4.03542,-2.3233 7.88717,-4.22418 8.55945,-4.22418 0.67227,0 4.62493,1.81841 8.78368,4.04091 7.03246,3.75826 92.93335,53.72792 99.64485,57.9647 l 3.01918,1.90592 -1.81324,1.36791 c -2.6865,2.02673 -32.34089,19.26161 -34.65613,20.14186 -1.67424,0.63654 -2.75783,0.35038 -6.80657,-1.79753 z"
       id="path1" /><path
       style="fill:#000000;stroke-width:2.68594"
       d="m 524.06058,885.50914 c -2.95454,-1.2819 -8.3888,-5.577 -12.07614,-9.5445 -5.70743,-6.14115 -6.84431,-10.29728 -7.64604,-27.95179 -1.04341,-22.976 1.55922,-27.87025 14.82057,-27.87025 9.95195,0 14.30243,7.30497 14.30243,24.0154 v 14.25935 h 25.5165 25.5165 v -25.5165 -25.5165 h -35.84399 c -45.03896,0 -44.73443,0.2318 -44.73443,-34.04104 0,-20.05012 0.84519,-24.98213 4.9119,-28.66245 12.42919,-11.24824 24.63352,-1.70203 24.63352,19.26835 v 13.88972 h 27.12503 c 47.50326,0 53.45339,6.2682 53.45339,56.31094 v 32.40422 l -9.18772,10.03282 -9.18771,10.0329 -33.11595,0.61013 c -18.21379,0.33555 -35.53332,-0.43883 -38.48786,-1.7208 z m 232.37354,-3.47378 c -14.75655,-9.963 -16.39597,-15.4899 -15.5574,-52.44784 l 0.74558,-32.85872 8.77387,-8.77346 c 8.7504,-8.7499 8.85668,-8.77588 39.61777,-9.67607 l 30.84382,-0.90261 v -14.12529 c 0,-15.3973 5.11868,-23.0157 15.4638,-23.0157 11.28127,0 14.08162,6.63212 14.08162,33.34991 0,34.02152 0.2979,33.79877 -45.20114,33.79877 h -35.37727 v 25.5165 25.5165 h 25.5165 25.51649 V 844.158 c 0,-16.71043 4.35045,-24.0154 14.30243,-24.0154 12.53137,0 15.24299,4.72412 15.24299,26.55631 0,18.8579 -0.46147,20.3591 -9.18772,29.888 l -9.18772,10.0329 -33.11595,0.86813 c -31.08359,0.81487 -33.69052,0.48022 -42.47767,-5.45258 z m -602.76837,-1.83667 c -4.09536,-4.52528 -4.50613,-11.39108 -3.77373,-63.07377 l 0.82191,-57.99575 8.77361,-8.77527 8.77362,-8.77525 31.98819,-0.8919 c 36.08699,-1.00618 46.71638,1.99829 54.66305,15.45094 3.92793,6.64947 4.58239,15.82238 4.58239,64.22747 0,60.96093 -0.88545,64.91163 -14.54828,64.91163 -11.52464,0 -14.99714,-7.6674 -14.99714,-33.11431 v -23.29055 h -25.5165 -25.5165 v 23.75723 c 0,19.60445 -0.85859,24.53428 -4.9119,28.20245 -6.50045,5.88278 -14.6722,5.62853 -20.33872,-0.63292 z m 76.28362,-95.64489 v -14.77271 h -25.5165 -25.5165 v 14.77271 14.77271 h 25.5165 25.5165 z m 50.7323,96.69504 c -12.09866,-6.57548 -13.52893,-14.7444 -12.62094,-72.08395 l 0.83487,-52.72283 8.77357,-8.77469 8.77353,-8.77467 41.21251,-0.8551 c 44.85171,-0.9306 50.02125,0.54568 50.02125,14.28484 0,12.9638 -5.45019,14.77271 -44.50998,14.77271 h -36.06843 v 45.6611 45.6611 h 35.09388 c 19.30165,0 37.43179,1.25119 40.28921,2.78044 5.88819,3.15122 7.07944,15.74867 1.97218,20.85587 -4.90655,4.90658 -84.52017,4.22325 -93.77165,-0.80482 z m 125.19724,1.5744 c -2.95455,-1.28198 -8.39358,-5.57843 -12.08676,-9.54765 -6.42135,-6.90128 -6.75306,-8.9205 -7.5884,-46.19159 -0.76116,-33.96218 -0.27582,-39.63523 3.77373,-44.10994 5.87167,-6.48812 15.09801,-6.58688 20.85703,-0.2232 3.64402,4.02659 4.44522,11.0462 4.44522,38.94624 v 34.03433 h 25.51649 25.5165 v -32.97669 c 0,-36.19821 2.85952,-44.91575 14.73317,-44.91575 13.1771,0 14.81225,5.21436 14.81225,47.23536 v 38.79384 l -9.18772,10.03282 -9.1877,10.0329 -33.11596,0.61013 c -18.21378,0.33555 -35.53331,-0.43883 -38.48785,-1.7208 z m 236.36335,-0.10883 c -2.95454,-1.22205 -8.39358,-5.4732 -12.08676,-9.44692 -6.44214,-6.93158 -6.71487,-8.63235 -6.71487,-41.87429 v -34.64925 l 8.77362,-8.78099 8.77362,-8.78097 31.98818,-0.89189 c 48.62265,-1.35571 59.24544,6.14818 59.24544,41.8507 0,25.75332 -2.304,27.53284 -35.648,27.53284 -23.64114,0 -26.17764,-0.50463 -30.00541,-5.96955 -9.88101,-14.1071 -1.49688,-23.57587 20.87529,-23.57587 13.44206,0 15.2327,-0.63149 15.2327,-5.37189 0,-4.99492 -1.79064,-5.37189 -25.51649,-5.37189 h -25.5165 v 24.17352 24.17353 h 36.06842 c 39.0598,0 44.50999,1.8089 44.50999,14.7727 0,13.13475 -5.26392,14.78692 -46.52444,14.60242 -20.94559,-0.0937 -40.50025,-1.17007 -43.45479,-2.3922 z"
       id="path2" /></g></svg>
