<svg role="img" viewBox="0 0 24 24" xmlns="http://www.w3.org/2000/svg"><title>Quaver</title><path d="M167.5 310.077c-36.367-7.59-67.113-33.183-81.353-67.72-6.117-14.836-7.56-23.042-7.538-42.857.018-16.43.256-18.857 2.721-27.823 3.489-12.687 9.778-26.73 10.775-24.061 3.013 8.064 5.585 13.455 8.555 17.928l3.465 5.218-1.542 5.369c-2.66 9.26-3.713 22.892-2.56 33.119 2.505 22.205 10.61 38.729 26.857 54.75 16.155 15.931 34.116 23.72 59.034 25.601l9.244.698 4.058 5.6c2.232 3.08 5.881 7.504 8.109 9.83s3.732 4.547 3.343 4.936-8.236.838-17.437.999c-13.358.232-18.545-.088-25.731-1.587m87.282.37c-11.61-2.814-24.193-10.966-31.816-20.61l-4.06-5.136 8.797-4.338c22.863-11.273 39.539-31.066 47.063-55.863 3.365-11.09 4.168-29.773 1.786-41.573-4.415-21.876-16.28-40.765-34.049-54.202-9.813-7.42-19.742-12.133-32.384-15.368-8.297-2.124-11.429-2.42-22.789-2.16-7.243.167-13.442.577-13.775.912s.536 2.81 1.932 5.5c4.721 9.101 5.133 20.184 1.11 29.815-2.21 5.286-10.173 13.235-15.97 15.94-9.8 4.57-21.301 4.233-30.185-.885-4.546-2.62-11.502-9.76-13.76-14.127-2.728-5.275-3.963-14.383-2.801-20.664 2.59-14.015 13.637-24.216 35.767-33.031 12.96-5.163 24.214-7.107 40.852-7.056 14.888.045 21.196.99 34 5.088 73.638 23.573 102.05 113.52 55.33 175.163-3.482 4.593-6.771 8.97-7.31 9.727-1.335 1.873 6.326 9.637 12.416 12.584 7.014 3.393 17.779 3.19 25.274-.477 3.134-1.534 6.844-4.15 8.244-5.814 4.297-5.106 2.821-1.436-2.002 4.98-7.825 10.41-21.79 19.39-34.251 22.027-7.056 1.493-20.344 1.283-27.42-.432"/></svg>