<?xml version="1.0" encoding="UTF-8" standalone="no"?>
<!-- Created with Inkscape (http://www.inkscape.org/) -->

<svg
   version="1.1"
   id="svg1"
   width="24"
   height="24"
   viewBox="0 0 24 24"
   xmlns="http://www.w3.org/2000/svg"
   xmlns:svg="http://www.w3.org/2000/svg">
  <defs
     id="defs1">
    <filter
       style="color-interpolation-filters:sRGB"
       id="filter5"
       x="0"
       y="0"
       width="1"
       height="1">
      <feComposite
         in2="SourceGraphic"
         operator="arithmetic"
         k1="0"
         k2="1"
         result="composite1"
         id="feComposite4"
         k3="0"
         k4="0" />
      <feColorMatrix
         in="composite1"
         values="1"
         type="saturate"
         result="colormatrix1"
         id="feColorMatrix4" />
      <feFlood
         flood-opacity="1"
         flood-color="rgb(0,0,0)"
         result="flood1"
         id="feFlood4" />
      <feBlend
         in="flood1"
         in2="colormatrix1"
         mode="multiply"
         result="blend1"
         id="feBlend4" />
      <feBlend
         in2="blend1"
         mode="screen"
         result="blend2"
         id="feBlend5" />
      <feColorMatrix
         in="blend2"
         values="1"
         type="saturate"
         result="colormatrix2"
         id="feColorMatrix5" />
      <feComposite
         in="colormatrix2"
         in2="SourceGraphic"
         operator="in"
         result="composite2"
         id="feComposite5" />
    </filter>
  </defs>
  <path
     d="M 167.5,310.07668 C 131.13345,302.48736 100.3869,276.89354 86.147042,242.35743 80.029639,227.52081 78.586255,219.31481 78.608689,199.5 c 0.0186,-16.43045 0.255925,-18.85657 2.721677,-27.82343 3.488555,-12.68635 9.777382,-26.7299 10.774625,-24.06077 3.012843,8.0639 5.585465,13.45487 8.555299,17.92776 l 3.46479,5.21836 -1.54201,5.36904 c -2.659336,9.25934 -3.712801,22.89205 -2.55927,33.11904 2.50452,22.20472 10.61007,38.72867 26.85668,54.75 16.15501,15.931 34.11582,23.72002 59.03392,25.60109 l 9.2433,0.69777 4.05849,5.60057 c 2.23217,3.08031 5.88112,7.50364 8.10878,9.8296 2.22766,2.32597 3.73211,4.54722 3.34322,4.93611 -0.38889,0.3889 -8.23583,0.83818 -17.43763,0.99841 -13.35788,0.23261 -18.54485,-0.0873 -25.73056,-1.58687 z m 87.28164,0.37038 c -11.60945,-2.81452 -24.19287,-10.96577 -31.81588,-20.60959 l -4.06021,-5.13655 8.79723,-4.33749 c 22.86361,-11.27297 39.53919,-31.06662 47.06331,-55.86343 3.36483,-11.08926 4.16748,-29.77317 1.78597,-41.57341 -4.41492,-21.87572 -16.28093,-40.76494 -34.04907,-54.20191 -9.81254,-7.42062 -19.74199,-12.1327 -32.38411,-15.36805 -8.29688,-2.12333 -11.42888,-2.42008 -22.78844,-2.15914 -7.24326,0.16638 -13.4422,0.57644 -13.77541,0.91125 -0.33322,0.33481 0.53598,2.80981 1.93154,5.5 4.72143,9.10141 5.13385,20.18394 1.10954,29.81547 -2.20873,5.28625 -10.17239,13.23452 -15.96972,15.93886 -9.79852,4.57082 -21.30077,4.23393 -30.18391,-0.88405 -4.54685,-2.61965 -11.50258,-9.76077 -13.76067,-14.12744 -2.72778,-5.27494 -3.96235,-14.38232 -2.80114,-20.66389 2.59074,-14.0146 13.63726,-24.21614 35.76708,-33.031176 12.96082,-5.162721 24.21394,-7.106274 40.85225,-7.05569 14.88826,0.04526 21.19648,0.989248 34,5.087879 73.63822,23.572877 102.05025,113.519547 55.32983,175.162937 -3.48141,4.59341 -6.77107,8.97067 -7.31037,9.72725 -1.33488,1.87273 6.32655,9.63743 12.41642,12.58378 7.0137,3.39331 17.77872,3.19017 25.27398,-0.47692 3.13408,-1.53336 6.84399,-4.14947 8.24424,-5.81357 4.29676,-5.10641 2.82121,-1.43659 -2.00249,4.98035 -7.82471,10.40916 -21.79006,19.39014 -34.25083,22.02636 -7.05551,1.49267 -20.34411,1.28339 -27.41914,-0.43183 z"
     id="path3"
     transform="matrix(0.09901525,0,0,0.09901525,-7.7834341,-7.7771964)" />
</svg>
