<svg role="img" viewBox="0 0 24 24" xmlns="http://www.w3.org/2000/svg"><title>Quaver</title><path d="M88.892 222.477c-36.367-7.59-67.114-33.183-81.353-67.72C1.42 139.922-.022 131.716 0 111.9.02 95.47.256 93.044 2.722 84.077c3.488-12.687 9.777-26.73 10.775-24.061 3.012 8.064 5.585 13.455 8.555 17.928l3.465 5.218-1.542 5.37c-2.66 9.258-3.713 22.891-2.56 33.118 2.505 22.205 10.61 38.729 26.857 54.75 16.155 15.931 34.116 23.72 59.034 25.601l9.243.698 4.059 5.6c2.232 3.08 5.88 7.504 8.109 9.83 2.227 2.326 3.732 4.547 3.343 4.936s-8.236.838-17.438.999c-13.358.232-18.545-.088-25.73-1.587m87.281.37c-11.61-2.814-24.193-10.966-31.816-20.61l-4.06-5.136 8.797-4.337c22.864-11.273 39.54-31.067 47.064-55.864 3.364-11.09 4.167-29.773 1.786-41.573-4.415-21.876-16.281-40.765-34.05-54.202-9.812-7.42-19.741-12.133-32.384-15.368-8.296-2.124-11.428-2.42-22.788-2.16-7.243.167-13.442.577-13.775.912s.536 2.81 1.931 5.5c4.722 9.101 5.134 20.184 1.11 29.815-2.21 5.287-10.173 13.235-15.97 15.94-9.799 4.57-21.3 4.233-30.184-.885-4.547-2.62-11.503-9.76-13.76-14.127-2.728-5.275-3.963-14.383-2.802-20.664C37.863 26.073 48.91 15.872 71.04 7.057 84 1.894 95.253-.05 111.892 0c14.888.045 21.196.99 34 5.088 73.638 23.573 102.05 113.52 55.33 175.163-3.482 4.593-6.772 8.97-7.311 9.727-1.335 1.873 6.327 9.637 12.416 12.584 7.014 3.393 17.78 3.19 25.274-.477 3.135-1.533 6.844-4.15 8.245-5.814 4.296-5.106 2.82-1.436-2.003 4.98-7.825 10.41-21.79 19.39-34.25 22.027-7.056 1.493-20.345 1.283-27.42-.432"/></svg>