<svg role="img" viewBox="0 0 24 24" xmlns="http://www.w3.org/2000/svg"><title>Etterna</title><path d="M15.146 18.295a6 6 0 0 1-.75-.091c-.475-.075-1.14-.302-1.687-.576a5.33 5.33 0 0 1-2.343-2.367 5.9 5.9 0 0 1-.55-1.618 13 13 0 0 1-.107-.755c0-.004-.402-.006-.892-.006h-.893l.074.088a9 9 0 0 1 .82 1.115 7.42 7.42 0 0 1 .528 1.082c.1.213.275.822.36 1.242.072.362.144.993.144 1.272v.123H7.412v-.178c0-.397-.118-.988-.298-1.492-.112-.314-.397-.87-.522-1.019-.013-.015-.024-.034-.024-.04 0-.07-.646-.787-.879-.976a4.9 4.9 0 0 0-1.664-.91 4 4 0 0 0-.421-.117 5 5 0 0 0-.721-.102l-.322-.028v-1.191c0-.932.006-1.193.029-1.201.016-.006.177-.021.357-.035a4.8 4.8 0 0 0 1.278-.27 5.7 5.7 0 0 0 1.37-.769c.208-.167.703-.678.845-.872.584-.796.918-1.705.964-2.63l.015-.288 1.21.006 1.209.006.008.094c.01.113-.033.614-.08.937a7.2 7.2 0 0 1-.952 2.685 2 2 0 0 1-.165.253c-.01.004-.018.019-.018.032 0 .032-.434.606-.571.757a.8.8 0 0 0-.108.135c0 .01.409.017.909.017h.91l.042-.24c.14-.793.46-1.595.904-2.26.23-.343.31-.437.666-.794.438-.436.801-.7 1.326-.96.94-.469 1.813-.666 2.941-.666.472 0 .874.035 1.278.112a6 6 0 0 1 1.034.308c.027 0 .61.286.747.366.672.393 1.448 1.17 1.837 1.837.092.16.305.584.352.704.023.058.055.137.072.175.187.43.366 1.15.438 1.758.02.166.03.56.031 1.102v.843l-4.345.006-4.345.006.014.205c.058.904.664 1.78 1.528 2.21.37.184.646.266 1.097.326.55.074 1.366-.034 1.821-.24.463-.212.932-.71 1.296-1.376.039-.07.073-.133.077-.137.006-.008.246.115.772.395.204.11.635.335 1.019.533.425.22.68.359.68.37 0 .026-.401.652-.496.772l-.211.27a6 6 0 0 1-1.004.993c-.053.042-.45.304-.504.333-.54.288-.825.405-1.31.537-.71.193-1.437.254-2.382.199m3.188-7.755c0-.173-.105-.56-.21-.775-.35-.717-.94-1.166-1.81-1.377-.14-.034-.274-.041-.746-.04-.545 0-.585.003-.797.061-.122.034-.28.085-.351.113-.131.051-.518.252-.54.28a.5.5 0 0 1-.081.059c-.225.143-.566.548-.733.872-.141.274-.263.654-.263.818v.057h5.531z"/></svg>