<svg role="img" viewBox="0 0 24 24" xmlns="http://www.w3.org/2000/svg"><title>Etterna</title><path d="M646 779.952c-6.875-.4-15.65-1.243-19.5-1.875s-9.475-1.536-12.5-2.01c-20.273-3.18-48.664-12.871-72-24.58-42.48-21.311-79.168-58.37-99.98-100.987-12.29-25.168-18.296-42.828-23.465-69-1.158-5.865-4.45-29.212-4.547-32.25-.004-.137-17.14-.25-38.08-.25h-38.074l3.16 3.75c11.628 13.804 19.701 24.332 26.815 34.97 4.494 6.722 8.171 12.405 8.171 12.63 0 .224 1.597 3.05 3.548 6.279 3.922 6.489 12.551 24.084 15.63 31.871 1.088 2.75 2.603 6.35 3.367 8 4.218 9.115 11.716 35.068 15.31 53 3.095 15.439 6.142 42.346 6.144 54.25L420 759H316v-7.558c0-16.956-5.038-42.194-12.712-63.688-4.779-13.383-16.935-37.103-22.274-43.462-.558-.664-1.014-1.45-1.014-1.745 0-2.926-27.583-33.527-37.5-41.604-22.504-18.328-46.332-31.373-71-38.872-11.28-3.429-12.742-3.83-18-4.944-10.393-2.203-17.413-3.198-30.75-4.359L109 551.572v-50.818c0-39.76.272-50.91 1.25-51.242.688-.234 7.55-.899 15.25-1.477 18.888-1.417 37.047-5.266 54.5-11.551 17.877-6.437 43.93-21.042 58.5-32.792 8.84-7.13 29.974-28.948 36.025-37.192 24.93-33.965 39.148-72.755 41.146-112.259l.62-12.259 51.605.26 51.604.258.336 4c.405 4.819-1.395 26.196-3.368 40-5.786 40.473-19.782 79.904-40.66 114.55-3.463 5.748-6.637 10.6-7.052 10.783-.416.184-.756.798-.756 1.365 0 1.353-18.503 25.881-24.367 32.302-2.511 2.75-4.581 5.338-4.6 5.75-.018.413 17.432.75 38.779.75h38.811l1.806-10.25c5.96-33.824 19.66-68.036 38.597-96.39 9.79-14.656 13.178-18.699 28.409-33.897 18.663-18.622 34.17-29.867 56.565-41.015 40.12-19.972 77.345-28.392 125.5-28.387 20.139.002 37.29 1.512 54.5 4.795 11.214 2.14 31.671 8.042 38.877 11.216 2.408 1.06 4.772 1.928 5.254 1.928 1.13 0 25.985 12.182 31.869 15.62 28.659 16.746 61.803 49.896 78.367 78.38 3.95 6.79 13.023 24.906 15.027 30 .974 2.475 2.357 5.85 3.074 7.5 7.973 18.342 15.621 49.029 18.692 75 .836 7.065 1.308 23.88 1.32 47l.02 36-185.389.253-185.388.252.564 8.748c2.486 38.577 28.34 75.949 65.213 94.261 15.806 7.85 27.57 11.352 46.822 13.936 23.482 3.152 58.283-1.457 77.678-10.286 19.761-8.997 39.787-30.243 55.294-58.664 1.65-3.025 3.133-5.661 3.295-5.858.26-.317 10.504 4.934 32.911 16.87 8.728 4.65 27.115 14.264 43.5 22.746 18.14 9.391 29 15.289 29 15.75 0 1.14-17.118 27.824-21.155 32.977l-9.01 11.492c-11.605 14.805-25.662 28.71-42.835 42.375-2.258 1.797-19.154 12.991-21.474 14.228-23.055 12.288-35.216 17.267-55.939 22.904-30.238 8.224-61.273 10.811-101.587 8.468m136-330.887c0-7.356-4.48-23.851-8.98-33.065-14.927-30.56-40.112-49.712-77.225-58.728-5.99-1.455-11.675-1.766-31.795-1.74-23.28.031-24.973.163-34 2.649-5.225 1.438-11.975 3.59-15 4.783-5.6 2.206-22.09 10.766-23 11.938-.275.354-1.85 1.5-3.5 2.545-9.61 6.09-24.15 23.396-31.262 37.208C551.213 426.358 546 442.55 546 449.562V452h236z"/></svg>