<?xml version="1.0" encoding="UTF-8" standalone="no"?>
<!-- Created with Inkscape (http://www.inkscape.org/) -->

<svg
   version="1.1"
   id="svg1"
   width="200"
   height="200"
   viewBox="0 0 200 200"
   xmlns="http://www.w3.org/2000/svg"
   xmlns:svg="http://www.w3.org/2000/svg">
  <defs
     id="defs1" />
  <g
     id="g1">
    <g
       id="g3"
       transform="matrix(0.40639669,0,0,0.40639669,-70.68661,9.7028214)">
      <g
         id="g2"
         transform="translate(2.9816962)">
        <path
           style="fill:#000000"
           d="m 421.11953,299.85484 c 1.64625,-0.20362 3.05635,-1.30328 3.42142,-2.6682 0.43764,-1.63619 -0.46317,-3.75242 -2.00892,-4.71947 -1.16974,-0.73183 -1.35551,-0.7437 -2.93332,-0.1881 -2.7438,0.96625 -3.56486,2.53902 -2.66278,5.10066 0.41685,1.1837 0.71603,1.52756 1.75991,2.02274 0.75277,0.35733 1.7257,0.53871 2.42369,0.45237 z m -13.61754,-27.71799 c 1.56741,-0.36011 2.82698,-1.30934 3.44657,-2.59737 0.48394,-1.0054 0.49427,-1.47342 0.0611,-2.70365 -0.87516,-2.48517 -2.47448,-3.23142 -5.13771,-2.39726 -2.1049,0.65929 -3.00418,2.89809 -2.11403,5.26291 0.5867,1.55868 2.40686,2.74258 3.74414,2.43535 z m 17.24516,7.34048 c -0.025,-0.27371 -0.16056,-1.01731 -0.30142,-1.65246 -0.69601,-3.13822 -2.24389,-11.47106 -2.46495,-13.26956 -0.13756,-1.11932 -0.39117,-2.02 -0.56358,-2.00153 -0.17241,0.0185 -0.18894,-0.18057 -0.0368,-0.44241 0.15217,-0.26182 0.12671,-0.55173 -0.0566,-0.64428 -0.18346,-0.0924 -0.38494,-0.33834 -0.44796,-0.5462 -0.0667,-0.21958 -0.005,-0.21854 0.14663,0.003 0.37891,0.55171 0.56988,-0.0523 0.24189,-0.76512 -0.15312,-0.33273 -0.57054,-2.34861 -0.92761,-4.47974 -1.22877,-7.33375 -3.34213,-19.00486 -3.60875,-19.92963 -0.26191,-0.90835 -0.39218,-0.98627 -6.70998,-4.01325 -4.61486,-2.21107 -6.39835,-3.17988 -6.28592,-3.41455 0.0864,-0.18021 0.64434,-0.47873 1.23999,-0.66339 l 1.08302,-0.33573 -0.75442,-0.16494 c -1.21967,-0.26667 -1.32519,-0.86603 -0.49918,-2.83517 l 0.76636,-1.82677 0.82907,0.56289 c 3.69755,2.51038 6.61749,4.15577 9.40959,5.30235 3.14713,1.29236 3.22065,1.34134 3.74134,2.49342 0.52108,1.15293 0.54728,1.17036 1.38526,0.92142 1.16719,-0.34672 2.46013,-1.36528 2.42339,-1.90909 -0.071,-1.05092 -0.61461,-2.32433 -1.08932,-2.55178 -0.28169,-0.13496 -1.07663,0.0431 -1.76652,0.39554 -1.24139,0.63432 -1.27705,0.63001 -3.45474,-0.41816 -2.9385,-1.41455 -3.19763,-1.68101 -3.41867,-3.51838 -0.75347,-6.26328 -0.88771,-7.5868 -0.79015,-7.79042 0.0608,-0.12676 7.44039,3.28146 16.39924,7.57382 l 16.28882,7.8043 0.0934,1.14301 c 0.11499,1.40733 1.3551,3.09931 2.76767,3.7761 1.14841,0.55023 3.15822,0.47504 4.28625,-0.16035 0.70042,-0.39454 0.71186,-0.385 1.33263,1.11112 0.48683,1.17337 4.99543,9.8379 7.04041,13.53014 0.33063,0.59695 4.02325,2.72446 8.30007,4.78209 l 2.35618,1.13333 -0.22262,0.94823 c -0.2747,1.17002 0.5616,3.11735 1.5401,3.58617 0.97921,0.46915 3.51589,-0.43346 3.98811,-1.41905 0.19816,-0.41362 0.18604,-1.33607 -0.0273,-2.07109 -0.47088,-1.62279 -1.77644,-2.38025 -3.56668,-2.0693 -1.11701,0.19402 -1.51269,0.0559 -6.00406,-2.09603 -3.09467,-1.48272 -4.9757,-2.53072 -5.27813,-2.94068 -0.25842,-0.35033 -0.96799,-1.74806 -1.57683,-3.10609 -0.60883,-1.35803 -2.34399,-4.81842 -3.85588,-7.68975 -1.51191,-2.87134 -2.66468,-5.39648 -2.5617,-5.61141 0.88511,-1.84733 -0.26365,-5.58884 -1.96643,-6.40468 -1.54989,-0.74259 -3.48969,-0.43337 -4.98361,0.79442 l -1.36836,1.12461 -16.50698,-8.13143 c -9.07883,-4.47229 -16.67437,-8.35201 -16.87898,-8.6216 -0.35849,-0.47237 -0.89687,-4.95569 -0.60735,-5.05766 0.078,-0.0275 4.47592,2.0051 9.77301,4.51685 l 9.63104,4.56685 0.42231,1.12191 c 0.50585,1.34388 1.26359,1.76942 2.61383,1.46786 1.99423,-0.44533 2.84149,-2.77838 1.6041,-4.41714 -0.67322,-0.89161 -1.62385,-1.1878 -2.77611,-0.86496 -1.02753,0.2879 -21.74381,-9.87248 -22.21402,-10.89498 -0.17239,-0.37485 -0.53527,-2.30513 -0.80643,-4.28954 -0.27115,-1.98442 -0.71129,-4.18158 -0.97809,-4.88261 -0.26681,-0.70103 -0.44302,-1.36244 -0.39156,-1.46981 0.18094,-0.37768 6.31991,2.34432 20.04722,8.88887 7.62573,3.63557 14.02225,6.69838 14.21461,6.80607 0.19227,0.10787 0.25327,0.39711 0.13557,0.64277 -0.34842,0.72722 0.55214,2.554 1.47767,2.99745 1.1637,0.55755 1.9926,0.46452 3.29264,-0.36953 l 1.11219,-0.71353 7.15793,3.4295 7.15792,3.42951 0.12807,0.95549 c 0.0705,0.52553 0.48779,2.16338 0.92746,3.63969 0.88316,2.96552 1.01772,5.25868 0.41724,7.11105 -0.49431,1.52491 -0.18016,2.39025 0.74898,2.06305 0.58234,-0.20507 0.70228,-0.68128 1.14941,-4.56389 0.27459,-2.38421 0.52722,-4.84765 0.56142,-5.47431 0.0507,-0.92798 0.15191,-1.14899 0.5459,-1.19121 0.26602,-0.0285 9.63165,4.23971 20.8125,9.48495 l 20.32881,9.5368 0.41825,1.565 c 0.91383,3.41952 3.06537,5.13628 6.11775,4.88147 2.21397,-0.18482 3.65684,-1.1901 4.59999,-3.20487 1.31276,-2.80427 0.20733,-6.02707 -2.5146,-7.3312 -2.73501,-1.3104 -6.39559,-0.14918 -7.62615,2.41913 l -0.44443,0.92762 -25.41417,-12.40749 c -13.9778,-6.82411 -25.64731,-12.64804 -25.93224,-12.94209 -0.28495,-0.29404 -1.11715,-3.18074 -1.84935,-6.41489 l -1.33126,-5.88027 -25.22344,-12.15656 c -18.31279,-8.82603 -25.45595,-12.38144 -26.07215,-12.97728 -0.46679,-0.45138 -1.23978,-1.13963 -1.71776,-1.52946 -0.53954,-0.44004 -0.80398,-0.91831 -0.69744,-1.26142 0.26079,-0.83984 -0.0632,-1.73164 -0.66062,-1.81771 -0.34056,-0.0491 -0.53058,-0.38543 -0.52458,-0.92855 0.008,-0.76964 0.10686,-0.84633 1.02205,-0.79677 0.76443,0.0414 1.55687,0.40677 3.23279,1.49057 1.45164,0.93875 6.80117,3.5502 15.45448,7.54432 14.84708,6.85299 13.92469,6.57579 16.76599,5.03791 0.80593,-0.43623 2.76422,-1.70505 4.35169,-2.81958 1.58749,-1.11453 3.19087,-2.10273 3.5631,-2.19601 0.56319,-0.14113 4.04894,1.44221 20.76995,9.43431 11.05126,5.28211 24.26499,11.47498 29.36388,13.76188 l 9.27071,4.15801 0.40904,1.30129 c 0.49439,1.57282 1.45142,2.11929 2.98624,1.70512 2.09303,-0.56477 2.46273,-3.66646 0.54646,-4.58458 -0.85194,-0.40818 -2.76802,-0.11819 -3.04546,0.46086 -0.24125,0.50351 -13.23655,-5.42457 -40.00655,-18.24986 -19.68841,-9.43254 -21.07635,-10.05774 -21.6773,-9.76446 -0.35312,0.17233 -1.54636,0.99779 -2.6516,1.83435 -2.62493,1.98678 -5.65744,3.74357 -6.5292,3.78249 -1.81877,0.0812 -27.26858,-13.21343 -29.52809,-15.42502 -0.31232,-0.30568 -0.27966,-0.36001 0.23656,-0.39353 0.70342,-0.0456 6.59215,2.12005 9.36497,3.4442 2.34642,1.12089 2.6672,1.03792 4.73737,-1.22162 0.85806,-0.93654 1.85928,-1.77791 2.22496,-1.86969 0.52763,-0.13244 2.73492,0.80284 10.69539,4.53184 10.0326,4.6997 11.51711,5.31449 11.45599,4.74436 -0.0301,-0.28135 -6.33698,-3.51959 -31.49026,-16.16877 -7.57945,-3.81158 -9.39498,-4.8146 -8.69762,-4.80509 0.48474,0.008 0.76648,-0.0532 0.62611,-0.13277 -0.14034,-0.0796 0.63363,-0.4507 1.71999,-0.82461 1.68067,-0.57844 2.08376,-0.59506 2.70306,-0.11144 0.40029,0.31261 2.37027,1.12201 4.37776,1.7986 2.00746,0.67662 6.12395,2.32192 9.14779,3.65622 6.25986,2.76227 7.01143,2.92293 10.67693,2.28247 5.16968,-0.90329 2.91281,-1.72582 26.79063,9.76413 18.06593,8.69333 21.16154,10.10865 22.04989,10.08161 0.56841,-0.0173 2.51191,-0.49321 4.31891,-1.05754 1.80699,-0.56435 4.99642,-1.5173 7.08762,-2.11767 l 3.80219,-1.0916 4.69241,2.24713 c 2.58083,1.23592 13.43805,6.33221 24.12716,11.32507 l 19.43475,9.07793 0.13845,1.03297 c 0.21611,1.61242 1.80859,3.91769 3.15047,4.56061 1.65524,0.79305 4.02366,0.68432 5.59606,-0.25692 1.07993,-0.64644 1.47725,-1.11534 2.11689,-2.49827 0.66551,-1.43879 0.73304,-1.93345 0.43633,-3.19412 -0.75902,-3.22492 -2.95327,-5.05946 -5.77022,-4.8243 -1.83911,0.15352 -4.21551,1.73503 -4.96843,3.30649 l -0.50907,1.06249 -24.47691,-11.80278 -24.4769,-11.80277 -4.41847,1.20024 c -2.43016,0.66013 -5.67793,1.56233 -7.21727,2.00489 l -2.79877,0.80467 -21.9469,-10.33778 -21.94688,-10.33777 -2.28743,0.41298 c -1.25807,0.22713 -3.3647,0.49521 -4.68138,0.59572 l -2.39397,0.18274 -10.31394,-4.99495 c -5.67265,-2.74725 -10.74445,-5.32564 -11.27062,-5.72984 l -0.95668,-0.73492 1.03613,0.29404 1.03613,0.29407 -0.29668,-0.94053 c -0.16316,-0.51729 -0.24806,-0.94566 -0.18867,-0.95195 0.0594,-0.007 4.36672,1.93115 9.5718,4.30542 10.84316,4.94606 10.51474,4.85987 16.5696,4.34872 l 3.72338,-0.31432 9.84542,4.71713 c 6.27623,3.00707 10.19343,4.74662 10.80537,4.79844 0.52797,0.0448 2.22475,-0.22571 3.77065,-0.60096 1.54589,-0.37523 4.34791,-1.05787 6.22672,-1.51698 l 3.41602,-0.83473 8.2531,3.95091 8.2531,3.95089 3.91542,-1.20601 c 2.15349,-0.6633 4.67153,-1.4912 5.59565,-1.83977 l 1.68022,-0.63377 4.66555,2.20098 c 7.64997,3.60881 11.96092,5.46505 12.84805,5.53211 1.05388,0.0796 3.41059,-0.72474 4.47258,-1.52662 0.44554,-0.33641 2.11145,-2.68459 3.70205,-5.21817 3.59392,-5.7246 6.2174,-9.21076 8.92761,-11.86332 2.94915,-2.88638 5.88718,-4.04874 10.50142,-4.15457 4.47588,-0.10266 7.64393,0.56615 11.53431,2.43509 4.35046,2.08994 5.13286,2.68425 4.7062,3.57475 -0.4936,1.03023 0.45111,3.50515 1.53648,4.02517 1.83845,0.88084 4.2361,-0.41187 4.18001,-2.25368 -0.0677,-2.22543 -1.49079,-3.4169 -3.70057,-3.09844 -1.07395,0.15475 -1.49481,0.0474 -2.49446,-0.63661 -2.45034,-1.6765 -6.64384,-3.50259 -9.27425,-4.03855 -7.42001,-1.51186 -14.47811,0.27857 -18.84544,4.78053 -1.97806,2.03904 -5.34269,6.40613 -7.74302,10.05001 -1.1769,1.78662 -2.54524,3.65994 -3.04076,4.1629 -1.16995,1.18757 -3.16738,2.14298 -4.32424,2.06837 -0.75926,-0.049 -5.55647,-2.16805 -17.03248,-7.52377 -0.52294,-0.24391 -2.07543,0.1061 -5.56942,1.25595 -2.66444,0.87686 -5.24694,1.66071 -5.73888,1.74187 -0.77799,0.12835 -1.93278,-0.35656 -8.86994,-3.72455 l -7.97549,-3.87211 -1.77599,0.39384 c -5.90937,1.3104 -8.6835,1.88434 -10.00587,2.07003 l -1.4952,0.20998 -27.67588,-13.38461 c -29.97054,-14.49437 -28.77478,-13.83603 -28.40723,-15.64088 0.44062,-2.16365 4.5769,-1.6583 11.76849,1.43782 2.26502,0.97511 8.11805,3.5893 13.00675,5.80923 4.88871,2.21994 12.69684,5.75253 17.3514,7.85018 l 8.46282,3.81393 0.42736,1.52282 c 0.81057,2.88845 3.20018,4.56646 5.97287,4.19427 2.17309,-0.29171 3.33275,-1.15205 4.408,-3.27022 0.80682,-1.58933 0.90922,-2.08053 0.71938,-3.4494 -0.44149,-3.1836 -3.44568,-5.33503 -6.45105,-4.61985 -1.63963,0.39018 -3.79565,1.89029 -4.3577,3.03199 l -0.3735,0.75871 -5.07338,-2.18628 c -2.79035,-1.20245 -12.84459,-5.96255 -22.34273,-10.57799 -15.79481,-7.67517 -17.32755,-8.47263 -17.95096,-9.33924 -0.88107,-1.22481 -1.22421,-1.36976 -1.56397,-0.66062 -0.39448,0.82333 -0.73845,0.52684 -1.16939,-1.00799 -0.20651,-0.7355 -0.58475,-1.39695 -0.84054,-1.46991 -0.77282,-0.2204 -1.23552,-1.60021 -1.50912,-4.50039 l -0.25997,-2.75557 1.26263,-0.19008 c 1.13802,-0.17134 1.52305,-0.0506 3.90141,1.22319 4.29357,2.29958 25.95604,12.55864 26.43739,12.52041 0.24352,-0.0193 2.58692,-0.60461 5.20758,-1.30058 l 4.76482,-1.26541 2.00459,0.73838 c 1.10253,0.40612 7.57268,3.38634 14.3781,6.62272 l 12.37351,5.88426 0.64824,1.26863 c 0.94749,1.85427 2.21924,2.35951 4.1912,1.66507 1.18915,-0.41876 1.67817,-0.78712 2.03574,-1.53341 0.60619,-1.26522 0.39587,-2.76291 -0.55313,-3.9388 -0.63794,-0.79047 -0.91582,-0.94116 -1.82651,-0.99047 -1.24766,-0.0675 -2.78692,0.60458 -3.15796,1.37902 -0.24809,0.5178 -0.78414,0.28613 -14.11004,-6.09858 l -13.85215,-6.63683 2.12836,-4.44222 c 1.81323,-3.78449 2.20832,-4.43578 2.66877,-4.39868 0.73092,0.0588 45.32657,21.44177 52.89834,25.36393 l 6.03581,3.1265 -0.0111,1.54131 c -0.0211,2.87786 1.82521,5.95514 4.27866,7.13064 2.19119,1.04984 6.29797,0.14507 7.95438,-1.75241 1.93132,-2.21243 2.37662,-4.48827 1.41102,-7.21159 -1.3694,-3.86223 -4.62894,-5.55183 -8.44815,-4.37916 -0.99435,0.3053 -2.34185,0.98087 -2.99444,1.50125 l -1.18652,0.94614 -6.07398,-2.67765 c -19.08776,-8.41468 -52.68798,-24.59401 -53.40888,-25.71771 -0.16311,-0.25425 0.41903,-2.42944 1.57508,-5.88537 1.00861,-3.01513 1.8743,-5.77038 1.92378,-6.1228 0.0817,-0.58186 0.24212,-0.56783 1.74587,0.15265 2.34831,1.12512 16.25188,7.22564 22.20608,9.74345 4.393,1.85763 3.99798,1.64726 -3.18063,-1.6939 -6.13112,-2.85361 -8.11449,-3.87895 -7.87073,-4.06906 0.17919,-0.13977 0.0306,-0.11609 -0.3301,0.0526 -0.69501,0.32497 -1.27899,0.25445 -0.74261,-0.0897 0.4116,-0.26407 -0.14208,-0.52266 -1.03391,-0.48283 -0.48344,0.0216 -0.65686,-0.0614 -0.5582,-0.26744 0.0788,-0.16432 -0.0801,-0.41586 -0.35313,-0.55901 -0.42264,-0.22168 -0.39343,-0.25516 0.19693,-0.22587 1.34815,0.067 2.74846,0.1907 2.81016,0.2484 0.19367,0.18117 5.57848,-0.0789 7.45677,-0.36004 1.57187,-0.2353 2.30578,-0.19624 2.53929,0.1352 0.26015,0.3692 -0.22665,0.57165 -2.34126,0.97344 -2.54957,0.48447 -4.82017,0.68755 -4.99065,0.44637 -0.0438,-0.0619 -0.0727,-0.0415 -0.0639,0.0456 0.01,0.0872 -0.45559,0.22283 -1.03166,0.30174 -2.23901,0.30677 -0.2626,0.43354 2.52419,0.1619 4.77018,-0.46495 9.67827,-1.68857 13.93975,-3.4753 4.53555,-1.90165 4.92906,-2.13348 4.85139,-2.85811 -0.0425,-0.39711 -1.27957,-0.1122 -5.13862,1.18342 -2.79541,0.93853 -6.54476,1.99338 -8.33191,2.34412 -3.76446,0.73877 -9.29188,0.82499 -12.76565,0.19913 -2.89844,-0.52224 -9.5285,-3.13664 -9.27837,-3.65871 0.22942,-0.47882 0.13631,-5.61432 -0.16518,-9.10589 -0.28647,-3.3184 -1.28038,-6.56026 -2.49842,-8.14928 -1.95405,-2.54916 -7.11086,-6.38136 -11.30251,-8.39925 -8.72154,-4.19863 -17.11757,-2.29011 -28.81307,6.54956 -1.96571,1.48573 -4.897,3.88066 -6.51397,5.32204 l -2.93996,2.62073 -1.39848,-4.19954 0.0203,156.61456 c 0.0307,-0.007 0.0395,-2.10203 0.0194,-4.65539 -0.0202,-2.55335 0.0814,-5.10698 0.22612,-5.67473 l 0.26294,-1.03227 0.76923,0.95315 c 0.56386,0.69867 0.84381,1.76095 1.04864,3.97908 0.62183,6.73426 0.88682,8.1072 1.63382,8.46511 0.38912,0.18643 0.74067,0.26971 0.78126,0.18499 0.0929,-0.19397 -0.53461,-6.71051 -0.98441,-10.22244 -0.18666,-1.4573 -0.31187,-3.18798 -0.27828,-3.84599 0.058,-1.13603 0.10258,-1.19891 0.88326,-1.24679 0.51934,-0.0319 2.44631,0.67734 5.23154,1.92536 l 4.40939,1.97579 0.97408,4.56229 c 0.53575,2.50927 1.31129,6.19138 1.72342,8.18249 1.57047,7.58722 2.72593,12.93154 3.58851,16.5979 0.49161,2.08954 1.4005,6.31728 2.01973,9.39498 0.61925,3.07769 1.18874,5.62591 1.26556,5.66272 0.0768,0.0368 0.11926,-0.15705 0.0944,-0.43075 z m -17.56286,-58.73174 c -2.01435,-1.26256 -2.79671,-1.91563 -2.98806,-2.49427 -0.14256,-0.43112 -0.384,-0.84366 -0.53654,-0.91676 -0.15254,-0.0731 -0.20852,-0.27654 -0.12439,-0.45213 0.0841,-0.17558 -0.26338,-1.36657 -0.77224,-2.64662 -0.50886,-1.28005 -0.78908,-2.37538 -0.62272,-2.43404 0.16636,-0.0586 2.07167,0.65948 4.23399,1.59587 l 3.93153,1.70252 0.4734,2.31522 c 0.26038,1.27337 0.64407,3.26151 0.85265,4.41806 l 0.37923,2.10286 -1.04899,-0.74016 c -0.57695,-0.40709 -2.27699,-1.50983 -3.77786,-2.45055 z m 41.9881,10.73837 c 0.0611,-0.75769 1.11792,-1.08195 1.90635,-0.58488 0.57037,0.35965 0.6381,0.62637 0.35551,1.40027 -0.26338,0.72145 -0.49093,0.92373 -0.9272,0.82435 -0.7195,-0.16391 -1.38746,-0.98452 -1.33466,-1.63974 z m 1.72588,0.48136 c 0.0807,-0.30916 6.8e-4,-0.70402 -0.17963,-0.87745 -0.20874,-0.2017 -0.37924,-0.11273 -0.47307,0.24678 -0.0807,0.30918 -6.9e-4,0.70401 0.17962,0.87746 0.20875,0.20169 0.37923,0.11272 0.47308,-0.24679 z M 402.802,207.70458 c -0.99211,-1.18619 -1.45805,-2.91748 -0.92173,-3.42476 0.18601,-0.17599 1.59027,0.15263 3.59113,0.8404 3.09011,1.06217 3.31405,1.18323 3.76398,2.03467 0.50004,0.94623 0.81458,3.50317 0.51138,4.15699 -0.12382,0.26769 -0.52545,0.17998 -1.36001,-0.29679 -0.70718,-0.40401 -1.09428,-0.79845 -0.96124,-0.97953 0.12248,-0.16675 0.0672,-0.46771 -0.1231,-0.66881 -0.38686,-0.40898 -0.71097,-0.0176 -0.39425,0.47598 0.11172,0.17415 0.13602,0.45671 0.054,0.62792 -0.22197,0.4633 -3.00911,-1.38984 -4.16014,-2.76607 z m -1.18978,-9.30967 c -0.0972,-1.10928 0.12643,-2.91571 0.34817,-2.81137 0.1111,0.0523 0.96343,0.83871 1.89408,1.74761 0.93064,0.90888 2.18903,2.11136 2.79643,2.67214 0.66247,0.61166 1.04783,1.23367 0.96312,1.55456 -0.2886,1.09309 -5.88738,-1.85744 -6.0018,-3.16294 z m 1.01777,-7.52778 c -1.29345,-1.31532 -0.68578,-1.68206 1.21249,-0.73176 2.11962,1.06113 2.92835,1.78161 2.75244,2.45215 -0.11855,0.45179 -0.38343,0.42168 -1.65682,-0.18843 -0.83366,-0.39942 -1.87232,-1.08882 -2.30811,-1.53196 z m 46.61536,17.26053 c -0.45315,-1.42749 -1.97543,-2.14226 -3.78184,-1.77569 l -1.35375,0.27471 -17.38539,-8.51982 c -9.56197,-4.6859 -17.6013,-8.73568 -17.86522,-8.99951 -0.26391,-0.26384 -0.94128,-1.73979 -1.50527,-3.27991 -0.62818,-1.71538 -1.75096,-3.81914 -2.89815,-5.43031 -1.51817,-2.13217 -1.69268,-2.50294 -0.92183,-1.95843 0.52297,0.3694 11.89682,5.9431 25.27519,12.386 l 24.32432,11.71436 0.5668,2.40057 c 0.31175,1.32031 0.79629,3.42864 1.07674,4.68517 l 0.50991,2.28459 -2.85471,-1.36773 c -2.67189,-1.28016 -2.87599,-1.43472 -3.18681,-2.41396 z m -47.95079,-23.78328 c -0.54374,-1.41113 -0.41654,-1.69688 0.54937,-1.23409 1.29375,0.61987 2.79472,3.58216 1.96338,3.87491 -0.46309,0.16308 -2.092,-1.54884 -2.51278,-2.64083 z m -0.54418,-24.03359 c -0.67291,-1.92015 -0.33233,-2.43564 0.97292,-1.47255 0.34443,0.25417 1.413,0.58518 2.37454,0.73569 2.5461,0.39847 14.81612,6.08714 14.33115,6.64428 -0.17981,0.20659 -0.6347,0.78702 -1.01085,1.28985 -1.49685,2.00095 -0.91967,2.11991 -8.88867,-1.83224 l -7.13985,-3.54092 z m 4.41689,1.64202 c -0.0668,-0.62423 -1.20697,-1.66578 -1.65188,-1.5091 -0.24919,0.0878 -0.21365,0.31632 0.0941,0.60547 0.98468,0.92496 1.59814,1.28084 1.55771,0.90363 z m -2.92533,-20.88166 c -0.18746,-0.82645 -0.23222,-1.7293 -0.0995,-2.00633 0.21421,-0.44708 0.39814,-0.39392 1.63629,0.47294 0.76723,0.53714 7.60105,3.9485 15.18628,7.58082 13.284,6.3613 13.75805,6.61148 12.8856,6.80271 -0.49816,0.10917 -1.79096,0.21313 -2.87291,0.23105 l -1.96718,0.0325 -11.75688,-5.45554 c -6.46629,-3.00054 -11.96253,-5.61306 -12.21387,-5.80556 -0.25136,-0.1925 -0.61036,-1.02621 -0.79783,-1.85264 z m 146.70885,60.348 c -0.54183,-0.73911 0.11225,-2.11375 1.15304,-2.42276 2.00061,-0.5943 3.30339,2.13568 1.5308,3.20777 -0.85975,0.51999 -1.9637,0.1971 -2.6836,-0.7849 z M 411.74342,134.39338 c 0.23677,0.0149 0.56143,0.17053 0.72146,0.34566 0.16004,0.17515 -0.0337,0.16285 -0.43047,-0.0274 -0.39681,-0.19012 -0.52776,-0.33337 -0.29099,-0.31839 z m 44.48996,19.17479 c -0.31767,-1.42253 0.43047,-2.6319 1.79222,-2.8971 1.81768,-0.35397 2.86263,1.14815 2.38609,3.43003 -0.42181,2.01978 -3.70166,1.60144 -4.17831,-0.53293 z m -50.10941,-36.48004 -3.03048,-1.78708 -0.6174,-1.92586 c -0.33957,-1.05921 -0.80629,-2.18349 -1.03714,-2.49839 -0.49831,-0.67975 -0.25148,-1.37293 0.46823,-1.31495 0.76041,0.0613 0.87879,-0.49962 0.55089,-2.61021 l -0.2955,-1.90213 2.45781,-0.73007 c 1.35178,-0.40154 4.41061,-1.66763 6.79739,-2.81355 6.58734,-3.16265 10.80942,-4.28825 16.47484,-4.39213 5.57566,-0.10223 13.53081,1.5447 19.74191,4.08712 4.35451,1.78246 5.12315,2.39307 5.04102,4.00435 -0.072,1.41153 -1.19309,5.30101 -2.54474,8.82816 -1.05157,2.74414 -0.85951,2.72412 -5.39398,0.56178 -1.66788,-0.79578 -3.56246,-1.54036 -4.2098,-1.6554 -1.59621,-0.28364 -5.99914,0.16621 -12.27509,1.25412 -2.87327,0.49807 -5.58114,0.91744 -6.01746,0.93194 -0.82963,0.0276 -1.38338,-0.18035 -11.15241,-4.18696 -3.30843,-1.35689 -6.10164,-2.41168 -6.20718,-2.34398 -0.10552,0.0677 -0.0535,0.63567 0.1155,1.26214 0.30083,1.11488 0.34569,1.1495 2.11351,1.63071 0.99337,0.27042 4.56684,1.65641 7.94105,3.07999 l 6.13488,2.58834 1.97278,-0.25492 c 1.08503,-0.14021 4.35353,-0.72482 7.26334,-1.29915 2.9098,-0.57431 6.33835,-1.06492 7.619,-1.09021 2.2044,-0.0436 2.5229,0.0414 5.97803,1.59418 2.01719,0.90659 3.77516,1.853 3.93035,2.11599 0.22162,0.37555 -0.13903,1.35798 -1.71168,4.66267 -1.91454,4.02301 -2.04019,4.21331 -3.21258,4.86229 -1.26346,0.69942 -6.41943,2.17815 -8.89316,2.55058 l -1.41304,0.21273 -11.7792,-5.8175 c -6.47859,-3.1996 -13.14293,-6.6217 -14.80969,-7.6046 z m -2.88626,-15.38945 c 0.14293,-0.2444 0.1053,-0.48475 -0.0836,-0.53412 -0.1889,-0.0494 -0.38931,-1.00821 -0.44539,-2.13078 -0.056,-1.12256 -0.17615,-2.3298 -0.26683,-2.68274 -0.0908,-0.35296 -0.11388,-0.82483 -0.0515,-1.0486 0.0624,-0.22379 0.15579,-0.7507 0.20763,-1.17093 0.0676,-0.54754 0.46183,-1.01225 1.39139,-1.63989 0.71342,-0.48172 3.44483,-2.46943 6.06982,-4.41712 6.81858,-5.05932 8.75187,-6.15785 14.17406,-8.05397 5.31606,-1.859 8.23307,-2.14365 11.89994,-1.16126 4.70187,1.25968 10.83461,5.54706 13.92851,9.7374 0.75767,1.02621 1.55914,1.85292 1.78102,1.83715 0.22189,-0.0157 0.26898,0.0269 0.10463,0.095 -0.16435,0.0679 -0.0169,1.31707 0.3282,2.77567 0.61159,2.58689 0.86706,6.85681 0.51397,8.59069 l -0.17597,0.86408 -1.98184,-0.94289 c -5.92794,-2.82179 -14.42095,-5.02673 -20.49407,-5.32063 -6.18021,-0.29908 -10.78091,0.58684 -19.5813,3.77063 -6.44006,2.32985 -8.02496,2.6401 -7.31885,1.43268 z m -4.90958,-10.31175 c -0.13966,-0.62971 -0.12457,-0.63502 0.16116,-0.0568 0.17339,0.35092 0.29178,0.68707 0.26306,0.747 -0.1138,0.23751 -0.27756,-0.0288 -0.42422,-0.69024 z m -1.41373,-3.24989 c -0.1352,-0.45508 -0.18087,-0.79633 -0.10151,-0.7583 0.0794,0.038 0.2549,0.44147 0.39009,0.89656 0.1352,0.4551 0.18087,0.79633 0.10151,0.75831 -0.0794,-0.038 -0.25489,-0.44149 -0.39009,-0.89657 z m 56.51347,9.6155 c -0.10322,-2.57673 0.6604,-2.76127 0.84511,-0.20423 0.12858,1.77987 -0.0448,2.44121 -0.57162,2.18084 -0.10925,-0.0535 -0.23211,-0.94335 -0.27349,-1.97661 z m 24.40637,9.97286 c 0.0806,-0.16809 -0.0219,-0.28758 -0.22762,-0.26552 -0.20571,0.022 -0.33724,-0.0368 -0.29247,-0.13016 0.12033,-0.25116 1.588,-0.0804 1.78079,0.20729 0.19006,0.28355 -0.77393,0.79787 -1.15406,0.61575 -0.1393,-0.0667 -0.18736,-0.25888 -0.10683,-0.42697 z M 452.91471,93.76661 c -0.18097,-1.0137 -0.23365,-1.94245 -0.11707,-2.06386 0.11661,-0.12141 0.10807,-0.3827 -0.019,-0.58065 -0.15933,-0.24834 -0.0697,-0.34689 0.28942,-0.31796 0.63937,0.0514 1.29182,4.04746 0.74527,4.56439 -0.19847,0.18767 -0.40777,0.31875 -0.46521,0.29123 -0.0575,-0.0275 -0.25251,-0.87944 -0.43348,-1.89315 z m 26.33168,13.55163 c -0.0255,-0.23931 0.98682,-0.7174 2.38053,-1.12412 3.15165,-0.91974 3.39386,-0.16855 0.30387,0.94243 -2.33306,0.83884 -2.61193,0.85772 -2.6844,0.18169 z m 1.72023,-0.11139 c 0.57827,-0.28573 0.57295,-0.30084 -0.0568,-0.16117 -0.38213,0.0848 -0.71827,0.20313 -0.74698,0.26306 -0.11381,0.23752 0.1964,0.19822 0.80374,-0.10189 z m -23.49229,167.35119 c 2.05216,-0.12185 3.33553,-2.01933 2.6611,-3.93447 -0.61753,-1.75358 -1.83365,-2.28098 -3.72433,-1.61518 -0.79822,0.2811 -1.55394,0.72532 -1.67939,0.98715 -0.41185,0.85959 -0.17571,2.57284 0.47304,3.43201 0.76824,1.01744 1.13092,1.19809 2.2696,1.13044 z m -12.2501,-14.83632 c 0.44817,-0.15783 0.79789,-1.08897 0.55259,-1.47132 -0.31606,-0.49265 -1.52944,0.01 -1.58142,0.65518 -0.0444,0.55064 0.51737,0.99626 1.02883,0.81614 z m 43.3522,15.23298 c 3.03516,-0.44689 5.18682,-3.05785 4.78255,-5.80343 -0.23933,-1.62546 -1.55428,-3.53948 -2.86818,-4.17487 -2.13475,-1.03278 -5.83676,0.32237 -6.87746,2.51698 -1.72135,3.63002 1.1961,8.01597 4.96309,7.46132 z m -57.24376,-30.53999 c 0.90914,-0.96784 -0.17166,-2.46362 -1.37876,-1.90816 -0.40269,0.18529 -0.5339,0.4425 -0.5091,0.998 0.0443,0.99369 1.25924,1.57941 1.88793,0.91009 z m -0.95584,-1.34896 c 0.11855,-0.24745 0.30697,-0.30743 0.4187,-0.13329 0.11171,0.17415 0.14458,0.43882 0.073,0.58818 -0.0716,0.14935 -0.25996,0.20934 -0.41868,0.13329 -0.15873,-0.076 -0.19159,-0.34073 -0.073,-0.58818 z M 405.53501,226.0394 c -0.0178,-0.39884 -0.0776,-0.74684 -0.13284,-0.77332 -0.0554,-0.0265 -0.29284,0.17905 -0.52795,0.45672 -0.31907,0.37684 -0.28555,0.57286 0.13285,0.77332 0.47087,0.22561 0.55513,0.15272 0.52794,-0.45672 z m 132.96252,59.94338 c 1.4698,-0.88895 0.79198,-2.81368 -0.91051,-2.58551 -1.11556,0.14953 -1.62636,0.91063 -1.27697,1.90276 0.34938,0.99215 1.22438,1.26525 2.18748,0.68275 z m -26.52004,-19.34045 c 1.76371,-0.65224 2.52389,-2.04877 2.07063,-3.80402 -0.56084,-2.17197 -2.38217,-2.83181 -4.68944,-1.69888 -0.79382,0.38979 -1.09948,0.7632 -1.41206,1.7251 -0.85322,2.62572 1.41013,4.74698 4.03087,3.7778 z m -36.55284,-24.70701 c 0.79355,-0.27945 0.81664,-0.31582 0.77616,-1.22286 -0.0421,-0.94199 -1.26543,-1.4965 -2.04341,-0.92614 -0.48646,0.35663 -0.56213,0.6074 -0.37419,1.24004 0.28609,0.9631 0.75322,1.22179 1.64142,0.90899 z m 56.67813,22.2238 c 0.82631,-0.69103 0.68393,-1.6344 -0.31928,-2.11506 -0.98745,-0.4731 -1.9666,0.33099 -1.65997,1.36319 0.32448,1.0923 1.18243,1.41822 1.97925,0.75187 z m 63.02502,17.19082 c 2.92068,0.19707 5.43614,-2.15215 5.166,-4.82457 -0.34262,-3.38933 -3.6055,-5.07965 -6.72656,-3.48465 -1.81806,0.92911 -2.60547,2.5979 -2.18381,4.62808 0.45201,2.17613 1.85305,3.55351 3.74436,3.68114 z m -21.64012,-24.8903 c 2.00046,-0.56169 2.95455,-1.62582 3.07405,-3.42865 0.23281,-3.5119 -3.38033,-5.47062 -6.18495,-3.35289 -2.30959,1.7439 -1.85818,5.48298 0.81666,6.76456 0.55838,0.26752 1.38022,0.27362 2.29424,0.017 z m -22.23224,-12.23745 c 0.54803,-0.0338 1.25856,-0.25382 1.57897,-0.48871 0.56191,-0.41194 0.78223,-0.32308 6.21586,2.50714 3.09831,1.61382 5.92731,2.94446 6.28669,2.95696 1.13061,0.0394 -1.3443,-1.47172 -6.62366,-4.04431 l -4.89041,-2.38301 -0.13882,-1.20422 c -0.0763,-0.66231 -0.4259,-1.56134 -0.77674,-1.99783 -0.55183,-0.68652 -0.79667,-0.7939 -1.81429,-0.79574 -0.64702,-3.9e-4 -1.56937,0.29461 -2.04973,0.6573 l -0.87335,0.65943 -3.59404,-1.72197 -3.59405,-1.72199 -0.0592,-1.35896 c -0.0326,-0.74743 -0.42643,-4.01461 -0.87532,-7.26036 -0.44889,-3.24578 -0.96415,-7.18398 -1.14502,-8.75158 -0.18085,-1.56759 -0.45801,-3.16587 -0.6159,-3.55171 -0.23003,-0.56211 -1.33921,-1.25466 -5.58106,-3.48475 l -5.29396,-2.78321 -0.39354,-1.19887 c -0.49501,-1.50793 -1.09043,-1.79457 -2.73582,-1.31743 -1.07293,0.31133 -1.33678,0.53381 -1.48266,1.25024 -0.41495,2.03755 1.06942,3.56244 2.83531,2.9127 0.90426,-0.33273 1.18688,-0.23959 6.03766,1.98978 2.79894,1.28637 5.18074,2.5097 5.29288,2.71856 0.11215,0.20883 0.71496,4.1556 1.33959,8.7706 0.62464,4.61498 1.32573,9.38188 1.55798,10.59307 l 0.42229,2.20218 3.61747,1.73322 c 3.4108,1.63418 3.6517,1.80004 4.2157,2.90397 0.77161,1.51002 1.87538,2.28728 3.13729,2.20922 z m 76.57374,29.55002 c 1.28681,-0.63351 1.555,-1.31171 0.98033,-2.479 -0.54439,-1.10578 -1.42196,-1.38853 -2.64841,-0.85332 -0.92945,0.4056 -1.18942,1.36156 -0.68496,2.5189 0.4812,1.10399 1.23413,1.36427 2.35304,0.81342 z m -20.79061,-17.8392 c 0.56505,-0.66733 0.44196,-1.36215 -0.27457,-1.55012 -0.8713,-0.22858 -1.46412,1.15679 -0.71036,1.6599 0.38015,0.25377 0.70804,0.21719 0.98491,-0.10979 z M 498.48985,199.75974 c 1.4889,-1.72818 4.82783,-3.7492 6.58264,-3.9844 0.5779,-0.0775 1.84004,0.2686 3.48669,0.95597 1.83183,0.76467 2.93895,1.04874 3.8145,0.97877 l 1.23357,-0.0986 1.28959,3.81794 1.28959,3.81794 2.35761,0.90556 c 3.08516,1.18502 3.87233,1.14304 1.01204,-0.054 -1.78772,-0.74822 -2.27913,-1.07535 -2.5279,-1.68329 -0.16983,-0.41504 -0.49188,-0.73499 -0.71566,-0.71099 -0.22379,0.0239 -0.31295,-0.0608 -0.19808,-0.18871 0.35205,-0.39164 -0.80711,-4.30759 -1.86589,-6.30346 -1.28501,-2.42237 -2.22414,-2.90222 -4.90819,-2.5079 -2.19995,0.32321 -2.73745,0.60002 -1.06626,0.54912 0.9985,-0.0305 1.04155,-0.005 0.63935,0.38595 -0.5673,0.55057 -1.10616,0.61534 -1.92215,0.23102 -0.4457,-0.21022 -0.54226,-0.39582 -0.28957,-0.55793 0.77322,-0.49607 -1.96837,0.18067 -4.19678,1.03593 -3.06132,1.17494 -6.90212,4.36114 -5.85937,4.86075 0.2746,0.13156 0.91691,-0.37335 1.84429,-1.44975 z m 15.86402,-0.97697 c -0.13966,-0.6297 -0.12457,-0.63502 0.16116,-0.0568 0.17339,0.35092 0.29177,0.68707 0.26306,0.747 -0.11379,0.23751 -0.27755,-0.029 -0.42423,-0.69024 z m 66.89217,37.88221 c 3.11716,0.006 5.37891,-1.51537 6.401,-4.30669 1.03075,-2.81489 -0.20077,-6.299 -2.79931,-7.91954 -2.77461,-1.73034 -7.67678,-0.4056 -9.0418,2.44342 -1.62959,3.4012 -0.62452,7.03717 2.4986,9.03907 0.8716,0.55868 1.59258,0.74097 2.94151,0.74374 z m -14.16882,-12.73735 c 0.6449,-0.29147 1.31853,-0.83468 1.49699,-1.20712 0.48276,-1.0076 -0.16178,-3.09521 -1.09,-3.53044 -0.86867,-0.40733 -2.17298,-0.18809 -3.10429,0.52175 -0.93192,0.71031 -1.06933,1.20678 -0.71442,2.58118 0.24035,0.93082 0.56414,1.36202 1.28045,1.70521 0.7163,0.34321 1.25524,0.32536 2.13127,-0.0705 z m 64.14848,10.80266 c 1.0201,-0.47528 1.40783,-1.57801 0.83135,-2.36437 -0.9352,-1.2757 -3.26435,-0.0261 -2.73789,1.46866 0.23541,0.66845 1.31036,1.17348 1.90654,0.89571 z m -32.51094,-16.05496 c 4.95582,0.47683 9.06329,-4.51551 7.51313,-9.13169 -1.29396,-3.85323 -4.54209,-5.71264 -8.30485,-4.75415 l -1.21248,0.30885 0.47585,1.43711 c 0.8852,2.67338 -0.074,6.78366 -2.12077,9.08891 -0.68862,0.77554 -0.68202,0.82647 0.20767,1.60321 1.18433,1.03399 1.79028,1.28889 3.44145,1.44776 z m -3.20613,-1.9709 c 0.2674,-0.0351 0.77328,-0.56393 1.12414,-1.17506 0.3509,-0.61112 0.7914,-1.20958 0.97894,-1.32991 0.44936,-0.28829 0.99898,-1.74878 0.71019,-1.88714 -0.1241,-0.0596 -0.13231,-0.30291 -0.0183,-0.54099 0.11407,-0.23809 0.34494,-0.36699 0.51303,-0.28646 0.17426,0.0835 0.28146,-0.0557 0.2494,-0.32404 -0.0308,-0.25877 -0.0175,-0.55648 0.03,-0.66161 0.0471,-0.10524 -0.0792,-0.76393 -0.28129,-1.46404 -0.20209,-0.7001 -0.34063,-1.38043 -0.30785,-1.51185 0.25246,-1.01237 0.20345,-1.36995 -0.23914,-1.74471 -0.69584,-0.58917 -0.0754,-0.9115 1.68488,-0.87532 2.48507,0.051 4.27498,1.32081 5.64705,4.00599 0.79184,1.54966 0.80195,2.74874 0.0413,4.8948 -0.4905,1.38378 -0.87512,1.97393 -1.80412,2.76848 -0.64941,0.5554 -1.24891,0.97716 -1.33221,0.93725 -0.0834,-0.0399 0.0166,-0.23157 0.22202,-0.42589 0.20543,-0.1943 0.23833,-0.41805 0.0731,-0.49719 -0.1652,-0.0792 -0.39422,0.19871 -0.50895,0.61745 -0.27772,1.01365 -2.04882,1.36334 -3.07399,0.60693 -0.7074,-0.52197 -1.29432,-0.21704 -0.69869,0.36301 0.16635,0.16198 -0.55216,-0.0881 -1.59665,-0.55565 -1.1055,-0.49485 -1.69591,-0.87687 -1.41287,-0.91408 z m 1.96684,0.63728 c -0.1684,-0.18314 -0.42219,-0.2922 -0.56404,-0.24219 -0.14186,0.0499 -0.004,0.19982 0.30615,0.33303 0.34283,0.14719 0.44396,0.1116 0.25788,-0.0908 z m 3.00418,0.62131 c 0.17948,-0.11513 0.087,-0.21901 -0.2172,-0.24351 -0.59188,-0.0477 -0.78246,0.11532 -0.36735,0.31422 0.14936,0.0716 0.41241,0.0398 0.58455,-0.0707 z m -0.57343,-3.61175 c 0.0298,-0.0624 -0.11015,-0.28732 -0.31119,-0.49987 -0.2096,-0.22159 -0.34863,-0.22868 -0.32589,-0.0167 0.038,0.35541 0.52509,0.75029 0.63708,0.51655 z m -24.38798,-6.49436 c 1.77359,-0.33526 2.2054,-1.86529 0.72643,-2.57391 -1.22831,-0.5885 -2.51679,0.91358 -1.71815,2.00299 0.48834,0.66612 0.48826,0.66607 0.9917,0.57095 z m 17.96379,4.7905 c 0.98946,-1.19227 1.43039,-5.47455 0.55403,-5.38061 -0.63157,0.0677 -1.34822,2.17347 -1.36871,4.02176 -0.0113,1.01918 0.0478,1.88583 0.13154,1.9259 0.0836,0.04 0.39104,-0.2151 0.68314,-0.56705 z m -0.19791,-2.92621 c 0.067,-0.16305 0.15496,-0.0411 0.19475,0.27073 0.0398,0.3118 -0.0282,0.75829 -0.15091,0.99219 -0.23577,0.44904 -0.2757,-0.70187 -0.0439,-1.26292 z M 485.06418,151.92743 c 0.51048,-0.19452 1.15422,-0.56471 1.43054,-0.82264 0.93834,-0.87588 0.34341,-2.65022 -0.97403,-2.90499 -0.54582,-0.10552 -0.78802,0.13405 -1.47906,1.4631 -0.53659,1.03201 -0.73616,1.73367 -0.56904,2.00104 0.38599,0.61766 0.57855,0.64955 1.59159,0.26349 z m 0.76676,-1.04012 c 0.3063,-0.10787 0.44888,-0.0605 0.36223,0.12033 -0.18455,0.38519 -0.68935,0.56296 -0.78967,0.27808 -0.0428,-0.12124 0.14957,-0.30061 0.42744,-0.39841 z m -2.23991,-1.91297 c 0.14718,-0.34283 0.11159,-0.44397 -0.0908,-0.25789 -0.18313,0.16839 -0.2922,0.42219 -0.24219,0.56405 0.0499,0.14185 0.19983,0.004 0.33304,-0.30614 z m 69.04454,29.99091 c 0.49944,-0.0102 1.25702,-0.39077 1.71202,-0.85996 0.93113,-0.96021 0.96366,-1.69077 0.14487,-3.25332 -0.40182,-0.76683 -0.63646,-0.93014 -1.35639,-0.94402 -2.24712,-0.0434 -3.52365,2.11992 -2.33239,3.95244 0.75959,1.16848 0.69277,1.12816 1.83189,1.10486 z m -1.2733,-1.57137 c 0.0691,-0.35726 0.003,-0.70813 -0.14637,-0.7798 -0.14958,-0.0717 -0.12947,-0.22171 0.0447,-0.33343 0.17413,-0.11172 0.17913,-0.26902 0.0108,-0.34956 -0.49956,-0.23935 -0.1397,-0.61156 1.04371,-1.07954 0.88294,-0.34916 1.25258,-0.32451 1.78725,0.11921 0.52973,0.43961 0.55748,0.57315 0.12961,0.62357 -0.4492,0.053 -0.45552,0.10774 -0.036,0.31317 0.37951,0.18627 0.39124,0.39506 0.0458,0.82573 -0.25444,0.3172 -0.6727,0.87525 -0.92942,1.24016 -0.25666,0.36491 -0.49194,0.69129 -0.52274,0.72532 -0.0309,0.0339 -0.39283,-0.0996 -0.80451,-0.29674 -0.50578,-0.24233 -0.70775,-0.56922 -0.62287,-1.0081 z m 40.05412,17.6135 c 0.86972,-0.40021 1.08719,-1.61035 0.37468,-2.08498 -0.5897,-0.39275 -1.67686,-0.34748 -1.8809,0.0785 -0.13968,0.2915 0.43545,2.00625 0.71835,2.1418 0.1331,0.0638 0.48765,0.003 0.78787,-0.13523 z M 571.9887,181.52047 c 1.12187,-0.44026 1.27821,-0.98211 0.63642,-2.20553 -0.4732,-0.90202 -0.55024,-0.94514 -1.46905,-0.82198 -1.21658,0.16306 -1.79438,1.2509 -1.2128,2.28339 0.57337,1.01793 0.97521,1.16412 2.04543,0.74412 z m 58.53321,14.10711 c 0.5055,-0.0367 0.78377,-0.13724 0.6184,-0.22338 -0.16547,-0.086 -0.6441,-0.0868 -1.06387,-0.002 -0.9707,0.19754 -0.74535,0.31121 0.44547,0.22473 z m -62.95969,-32.2642 c -0.29524,-0.40206 -0.82276,-0.9674 -1.17223,-1.25631 -0.34948,-0.28891 -0.23563,-0.0266 0.25297,0.58291 1.00506,1.25375 1.74177,1.79342 0.91926,0.6734 z m -80.49606,-44.35699 c -0.64545,-0.38398 -1.74928,-0.91286 -2.45298,-1.17527 -0.70369,-0.26241 -0.17558,0.0517 1.17356,0.69809 1.34914,0.6464 1.92487,0.86116 1.27942,0.47718 z m 108.31457,46.53888 c 1.51426,-0.61965 1.33714,-1.858 -0.31382,-2.19422 -0.96377,-0.19627 -1.44319,0.56997 -1.01352,1.61993 0.37394,0.91379 0.43412,0.93983 1.32734,0.57429 z M 594.652,164.2187 c 0.30393,-0.63438 1.11202,-0.39488 1.02422,0.30357 -0.0392,0.3123 -0.14508,0.32987 -0.32245,0.0534 -0.19218,-0.29955 -0.2771,-0.24906 -0.31211,0.18555 -0.032,0.39707 -0.14973,0.49882 -0.35139,0.30383 -0.16679,-0.1613 -0.18404,-0.54216 -0.0383,-0.84637 z m -80.58957,-39.24423 c 1.97075,-0.1928 3.71136,-1.37836 4.53233,-3.08706 0.84094,-1.75055 0.8965,-2.63451 0.27254,-4.34452 -1.01896,-2.79254 -3.4499,-4.02196 -6.28975,-3.18099 -2.85817,0.8464 -4.03871,2.19114 -4.16934,4.74923 -0.084,1.64532 0.20921,2.59186 1.20831,3.90049 1.09613,1.43567 2.68121,2.13548 4.44591,1.96285 z m 101.49738,44.85574 c 1.06591,-0.37536 1.14722,-0.54805 0.79226,-1.6825 -0.34039,-1.08799 -0.45637,-1.16012 -1.5687,-0.9758 -1.04024,0.17236 -1.45435,0.92193 -1.05223,1.90456 0.39069,0.95472 0.79022,1.11941 1.82864,0.75372 z M 495.81153,106.05172 c 2.0871,-0.58601 3.00484,-1.66238 3.06342,-3.59289 0.0364,-1.19976 -0.17697,-1.81635 -0.97465,-2.81671 -0.8818,-1.10588 -1.17936,-1.3011 -2.17909,-1.42979 -0.63682,-0.0819 -1.79224,0.12175 -2.56764,0.45274 -1.297,0.55367 -1.46014,0.73398 -2.03947,2.25429 -0.52878,1.38772 -0.54585,1.85366 -0.10653,2.90801 0.42504,1.0201 0.79096,1.38386 1.95146,1.93989 1.18073,0.56571 1.67523,0.61503 2.85253,0.28446 z m 66.81419,31.50882 c 1.48832,-0.2399 3.4723,-1.50547 3.96186,-2.52724 0.5898,-1.23102 0.45844,-3.43426 -0.28664,-4.80765 -1.86186,-3.43191 -6.82939,-3.29847 -8.51938,0.22883 -1.13443,2.36773 -0.24695,5.1752 2.06998,6.54818 1.10238,0.65326 1.58306,0.7496 2.77418,0.55788 z m -27.53435,-19.25105 c 0.21134,-0.1999 0.35067,-0.45884 0.30963,-0.5754 -0.0411,-0.11659 -0.27083,0.0198 -0.51059,0.30292 -0.50931,0.60153 -0.36034,0.80347 0.20097,0.27249 z m -1.62244,-0.56814 c -0.74677,-0.85125 -0.72905,-2.09192 0.0338,-2.36054 0.52264,-0.18405 0.67127,-0.0794 1.08722,0.76547 0.53868,1.09419 0.90337,0.85916 0.43663,-0.28141 -0.39735,-0.97101 -1.00131,-1.22045 -1.98268,-0.81885 -0.7851,0.32127 -0.80255,0.36189 -0.6004,1.39778 0.11451,0.5868 0.5049,1.24738 0.86753,1.46798 0.64636,0.39318 0.64949,0.38978 0.15794,-0.17044 z M 451.74269,64.39821 c 1.28847,-0.94455 1.27531,-2.25096 -0.0289,-2.87586 -0.91199,-0.43695 -1.67417,-0.20871 -2.07134,0.6203 -0.64277,1.34154 0.9759,3.07987 2.1003,2.25556 z m 106.44687,45.3451 c 1.70651,-0.49515 2.52556,-1.96793 1.96216,-3.5282 -0.5383,-1.49071 -1.42666,-2.08698 -2.87833,-1.93193 -2.23444,0.23864 -3.26462,1.86384 -2.52064,3.97651 0.5005,1.42123 1.76724,1.96807 3.43681,1.48362 z M 535.67228,97.35658 c 0.0287,-0.06 -0.0896,-0.39608 -0.26307,-0.74699 -0.28572,-0.57826 -0.30082,-0.57295 -0.16116,0.0568 0.14668,0.66133 0.31042,0.92775 0.42423,0.69023 z m -1.9461,-1.86294 c 0.34064,-0.0434 0.43058,-0.13984 0.22534,-0.24143 -0.18774,-0.0933 -0.48407,-0.0776 -0.65822,0.0341 -0.39308,0.2522 -0.29318,0.30005 0.43289,0.2074 z m -14.52085,-10.6747 c 2.13167,-0.35322 2.57591,-3.56437 0.62258,-4.50024 -0.58249,-0.27908 -2.87048,0.55425 -3.1556,1.14935 -0.30982,0.64664 0.52133,2.91103 1.18527,3.22913 0.29433,0.14103 0.90081,0.19581 1.34775,0.12176 z"
           id="path1" />
        <path
           style="fill:#000000;stroke-width:0.36023"
           d="m 216.14525,230.97233 0.1813,-25.63152 21.07607,-21.33096 21.07624,-21.3308 -15.59897,1.42188 -15.599,1.42185 -12.77102,-12.77102 -12.77104,-12.77104 -0.0137,-17.19734 -0.0137,-17.19735 11.3404,-11.3404 11.34041,-11.34042 85.71375,5.6e-4 85.71379,5.7e-4 2.67458,2.67458 2.67459,2.67458 -5.9e-4,85.71377 -5.5e-4,85.71376 -11.33985,11.33986 -11.33984,11.33983 -17.19736,-0.0137 -17.19735,-0.0137 -11.32504,-11.32503 -11.32504,-11.32504 -0.003,-17.19364 -0.003,-17.19369 -21.2669,21.2669 -21.26691,21.2669 -25.85422,0.002 -25.85421,0.002 -5.61579,-5.61581 -5.61577,-5.61577 z m 45.55757,5.7853 8.53311,0.006 14.43427,-14.43427 14.43427,-14.43427 -0.13954,-8.59331 -0.13952,-8.59331 -2.72964,-2.72963 -2.72964,-2.72965 -8.59331,-0.13952 -8.59329,-0.13951 -14.42872,14.42873 -14.42873,14.42872 -0.006,8.53308 -0.006,8.5331 2.92937,2.92937 2.92939,2.92938 z m 28.43755,-57.02715 8.32079,-0.085 2.97805,2.97805 2.97806,2.97807 -0.066,8.33974 c -0.0363,4.58686 -0.0173,8.38846 0.0422,8.44796 0.0595,0.0595 7.81548,-7.59909 17.23548,-17.01909 l 17.12729,-17.12729 0.006,-8.53309 0.006,-8.5331 -2.92938,-2.92937 -2.92937,-2.92936 -8.53309,-0.006 -8.53309,-0.006 -17.13283,17.13283 c -9.42304,9.42303 -17.07823,17.1874 -17.01138,17.25425 0.0668,0.0668 3.86582,0.0832 8.44226,0.0365 z m -17.09692,-48.42764 28.52711,-0.002 4.33283,4.33283 4.33282,4.33282 14.261,-0.003 14.26098,-0.003 2.67799,2.67799 2.67798,2.67798 -0.003,14.26099 -0.003,14.26099 4.33282,4.33283 4.33283,4.33283 -0.002,28.5271 -0.002,28.52709 4.26744,4.26743 4.26743,4.26743 5.7945,-5.7945 5.79452,-5.79452 8.1e-4,-59.73217 8.1e-4,-59.73218 -2.92931,-2.92931 -2.92929,-2.92929 -59.73218,-8.1e-4 -59.73217,-8.2e-4 -5.79533,5.79533 -5.79532,5.79532 4.26744,4.26743 4.26745,4.26745 z"
           id="path1-2" />
      </g>
      <path
         style="fill:#000000;fill-opacity:1;stroke-width:4.18386"
         d="m 358.96789,382.20064 c -2.38397,-1.45349 -2.6781,-2.80701 -2.6781,-12.32325 0,-7.49891 0.0949,-8.65184 0.82936,-10.07339 1.50192,-2.90712 1.35656,-2.87997 16.69362,-3.1196 l 13.84528,-0.21653 v -10.384 -10.38398 l -9.08597,-0.12266 c -4.99731,-0.0678 -9.52405,-0.016 -10.05949,0.11626 -0.9532,0.23387 -0.9735,0.368 -0.9735,6.4459 0,5.63938 -0.0827,6.31216 -0.90354,7.3557 -1.96254,2.49502 -5.39259,3.07374 -8.01872,1.35304 -1.86472,-1.22184 -2.32704,-3.08218 -2.32704,-9.36386 0,-7.56384 0.63432,-9.6776 3.8849,-12.94566 3.71195,-3.73181 4.80272,-3.95576 18.46307,-3.7908 10.604,0.128 11.28549,0.1856 13.14869,1.11384 2.44544,1.21808 4.94662,3.61264 6.17992,5.91662 0.88427,1.65192 0.9491,2.42754 1.07552,12.86322 0.0819,6.75142 -0.0414,11.75808 -0.31386,12.77032 -0.75478,2.80302 -2.84622,5.60742 -5.49336,7.36592 l -2.47027,1.6411 -10.63917,0.1136 c -5.85152,0.0624 -11.0772,0.212 -11.61264,0.3324 -0.9552,0.2152 -0.9735,0.338 -0.9735,6.55176 v 6.3324 l -1.74888,1.66362 c -1.46136,1.39022 -2.04818,1.66344 -3.56949,1.66214 -1.062,-8e-4 -2.41739,-0.3652 -3.25283,-0.87486 z M 222.72514,365.35523 C 221.0209,364.31611 220,362.43216 220,360.32648 c 0,-1.79021 1.33304,-4.24632 2.74282,-5.05373 0.66558,-0.3812 4.92278,-0.59768 14.78014,-0.75168 l 13.84534,-0.21654 v -1.08168 -1.08168 l -11.033,-0.21626 c -10.5396,-0.20694 -11.12616,-0.26294 -13.11676,-1.25096 -2.55044,-1.26611 -5.34646,-4.42171 -6.41814,-7.24355 -1.0295,-2.71072 -1.04896,-7.32541 -0.0432,-10.24453 1.08586,-3.15179 4.76728,-6.80696 7.83766,-7.78179 3.31648,-1.05299 29.23688,-1.10853 31.25106,-0.0666 2.62434,1.35706 3.6432,4.5249 2.33918,7.2729 -1.25064,2.63552 -1.25806,2.6368 -16.6578,2.87374 l -14.06164,0.21626 -0.13068,2.27152 -0.13092,2.27147 h 10.3569 c 12.26918,0 13.5937,0.2748 17.19736,3.5684 5.52672,5.05104 5.52672,13.77208 0,18.8232 -3.76026,3.43669 -4.5277,3.56861 -20.74424,3.56672 -13.0268,-8e-4 -13.99114,-0.055 -15.28896,-0.84619 z m 51.19752,0.0925 c -3.0592,-1.01907 -6.48922,-4.30611 -7.60484,-7.28792 -0.84144,-2.24899 -0.8878,-3.28296 -0.88628,-19.77168 8e-4,-16.49293 0.0456,-17.47061 0.8462,-18.78368 1.56372,-2.56461 4.63568,-3.39749 7.49754,-2.03277 1.89026,0.90144 2.60178,2.0636 2.88736,4.71592 l 0.2328,2.16333 6.05734,0.21653 c 4.811,0.172 6.2874,0.3728 7.17556,0.97632 3.30304,2.24496 3.01516,7.48096 -0.51096,9.2931 -0.65508,0.3368 -2.98828,0.53682 -6.30472,0.54082 -2.89562,0.002 -5.57274,0.1248 -5.94916,0.2692 -0.5951,0.22854 -0.68438,1.49254 -0.68438,9.6887 0,8.19624 0.0893,9.46034 0.68438,9.68866 0.3764,0.14427 6.62544,0.26267 13.88672,0.26267 14.65722,0 15.03208,0.0654 16.35752,2.85869 1.2846,2.70715 0.45032,5.57392 -2.06918,7.11011 -1.30126,0.79344 -2.23706,0.84309 -15.4468,0.81952 -11.76952,-0.0214 -14.40518,-0.1392 -16.1692,-0.72712 z m 45.37416,-0.008 c -1.51452,-0.498 -2.8797,-1.43072 -4.55208,-3.11011 -3.57388,-3.58893 -3.88488,-4.94672 -3.88488,-16.96077 0,-12.07403 0.27004,-13.25947 3.82428,-16.7884 3.69252,-3.66616 4.79156,-3.91189 17.49616,-3.91189 12.77031,0 14.01335,0.2736 17.63663,3.8849 3.29128,3.28019 3.87734,5.23571 3.87523,12.93056 -0.002,6.61632 -0.43253,7.93408 -3.13125,9.57952 -1.2875,0.78496 -2.19275,0.85987 -10.40945,0.86136 -6.86269,8e-4 -9.2769,-0.14186 -10.16864,-0.60309 -3.7885,-1.95912 -4.45186,-6.62179 -1.36344,-9.58355 l 1.332,-1.27741 6.26803,-0.14027 6.26805,-0.1408 -0.1296,-2.23922 -0.1296,-2.23926 -9.086,-0.1224 c -4.99728,-0.0678 -9.52792,-0.0134 -10.06808,0.1184 l -0.98204,0.2408 0.1168,9.18374 0.1168,9.18376 13.86532,0.21653 c 15.44649,0.2408 15.64251,0.2792 16.89009,3.2648 1.21301,2.90307 0.31549,5.99755 -2.18843,7.54507 -1.34133,0.82896 -2.10443,0.87077 -15.42174,0.84544 -11.78304,-0.0214 -14.35452,-0.13974 -16.17392,-0.73803 z m 85.13841,-0.0891 c -2.54454,-1.55146 -2.71552,-2.59586 -2.71552,-16.5856 0,-15.47152 0.2112,-16.5756 3.86832,-20.21984 3.80226,-3.7888 4.28978,-3.8768 21.4761,-3.8768 13.47139,0 14.58512,0.0584 16.79152,0.88414 2.91616,1.09112 5.62139,3.64576 7.0032,6.61354 1.03251,2.21768 1.04168,2.35976 1.04587,16.23214 0.006,13.48178 -0.028,14.04114 -0.8952,15.258 -1.81912,2.55474 -5.06368,3.26176 -7.67176,1.67168 -2.52963,-1.5423 -2.67808,-2.45246 -2.67808,-16.41632 v -12.5612 h -4.11032 -4.11035 v 12.7489 c 0,11.01336 -0.0984,12.9552 -0.72221,14.26344 -1.90963,4.00464 -8.40504,3.59878 -9.91816,-0.61976 -0.3848,-1.07274 -0.55272,-5.14122 -0.57603,-13.95346 l -0.032,-12.43912 h -4.11032 -4.11034 v 13.02138 c 0,14.49302 -0.0514,14.77982 -2.89096,16.13392 -1.95752,0.9335 -3.94726,0.87878 -5.64286,-0.1552 z m 52.92749,0.0186 c -0.68891,-0.45416 -1.62435,-1.41298 -2.0788,-2.13074 -0.76024,-1.2007 -0.81571,-2.06734 -0.69443,-10.84598 l 0.13147,-9.54096 1.4136,-1.4136 1.41368,-1.41354 9.85779,-0.13014 c 6.02269,-0.0794 10.31202,0.043 11.0253,0.314 3.47638,1.32168 3.9016,8.20596 0.62256,10.07944 -0.5989,0.3424 -3.28242,0.63628 -7.02629,0.77 l -6.05736,0.21654 -0.1344,1.62248 -0.1344,1.6225 h 9.98587 9.98586 l -0.1168,-9.40994 -0.1168,-9.41054 -14.1041,-0.21652 c -11.34267,-0.17388 -14.24963,-0.3372 -14.84731,-0.8338 -1.97733,-1.6428 -2.57093,-5.17836 -1.246,-7.42128 1.45192,-2.45789 2.15491,-2.56154 17.3748,-2.56154 12.88827,0 14.03853,0.0624 16.22323,0.87973 3.1417,1.17549 5.96866,3.73713 7.2476,6.56741 1.00312,2.21992 1.03378,2.61532 1.03378,13.3208 v 11.033 l -1.21624,2.47668 c -1.45968,2.97252 -3.94544,5.21128 -7.09448,6.38952 -2.1493,0.80412 -3.35888,0.86856 -16.2593,0.86592 -12.98579,-0.002 -14.02275,-0.0598 -15.18979,-0.8286 z m 45.13032,-0.15492 c -2.58048,-1.73892 -2.57992,-1.73508 -2.45533,-17.40184 0.10933,-13.71972 0.1504,-14.34668 1.05456,-16.03588 1.23493,-2.30696 3.77645,-4.74072 6.19797,-5.93509 1.83512,-0.90512 2.59472,-0.96797 13.21984,-1.094 10.75107,-0.12773 11.39136,-0.0896 13.83187,0.82365 1.75848,0.65787 3.24741,1.64731 4.7592,3.1624 3.42992,3.43744 3.66768,4.74024 3.66768,20.09808 0,11.68268 -0.064,12.77012 -0.84371,14.2982 -1.41917,2.78168 -4.66328,3.78336 -7.65509,2.36364 -2.84432,-1.34972 -2.95096,-1.90892 -3.10395,-16.2748 l -0.13733,-12.87184 h -9.9224 -9.9224 l -0.008,12.87184 c -0.002,9.42704 -0.1512,13.1578 -0.54712,13.94048 -0.80664,1.59404 -3.22014,3.04164 -5.07118,3.04164 -0.95184,0 -2.19714,-0.4004 -3.06656,-0.98648 z m 46.16184,0.002 c -3.90405,-2.23819 -4.31608,-6.65968 -0.91664,-9.836 0.99523,-0.92995 1.5624,-1.08171 4.04328,-1.08171 2.21272,0 3.15456,0.2016 4.03896,0.86536 3.80907,2.85795 3.23963,8.27035 -1.08613,10.32312 -2.04427,0.97003 -4.07275,0.87971 -6.07947,-0.2708 z m 15.53091,0.17573 c -3.03976,-1.87763 -3.01524,-1.78371 -3.15948,-12.12179 -0.12826,-9.21112 -0.1128,-9.40304 0.87832,-10.87408 1.71384,-2.5432 2.09436,-2.61472 13.24416,-2.48912 l 10.09764,0.1136 1.02336,1.19051 c 2.14997,2.5012 2.15005,5.93389 2.8e-4,8.43557 -1.0122,1.17795 -1.09112,1.19283 -7.44332,1.40688 l -6.42028,0.21654 -0.1344,1.62242 -0.1344,1.62254 h 9.98584 9.98585 l -0.1168,-9.41048 -0.1168,-9.41048 -14.10413,-0.21627 c -15.22572,-0.2336 -14.93632,-0.18587 -16.21104,-2.65117 -1.37748,-2.66384 -0.3116,-6.23545 2.22116,-7.44329 1.31548,-0.62728 3.31188,-0.72216 15.19884,-0.72216 16.43693,0 17.15184,0.1328 20.91664,3.88489 3.59069,3.57864 3.87685,4.81752 3.87685,16.78656 0,12.07645 -0.308,13.4192 -3.89168,16.97048 -3.79368,3.75925 -4.51576,3.89432 -20.80833,3.89237 -12.47472,-8e-4 -13.69756,-0.0678 -14.88892,-0.80336 z m 46.10968,0.0472 c -0.81595,-0.41587 -1.8868,-1.30619 -2.37968,-1.97803 -0.87,-1.18605 -0.89603,-1.71096 -0.89603,-18.03213 0,-16.37355 0.024,-16.84227 0.90419,-18.03208 1.85824,-2.5103 5.41725,-3.32934 8.51424,-1.95944 3.66845,1.62272 3.56149,1.02261 3.56149,19.99152 0,18.76133 0.0912,18.20072 -3.23405,19.89712 -2.09955,1.07109 -4.50875,1.1132 -6.47016,0.1128 z m -0.47019,-46.33126 c -3.958,-2.08418 -3.72629,-7.03226 0.42851,-9.15192 2.16261,-1.10322 4.34181,-1.10706 6.48957,-0.0134 2.20211,1.12344 3.04003,2.38766 3.04003,4.58672 0,2.02752 -1.08843,3.71806 -3.04544,4.73006 -1.70779,0.88312 -5.08643,0.8081 -6.91267,-0.1536 z"
         id="path1-1" />
    </g>
  </g>
</svg>
