<?xml version="1.0" encoding="UTF-8" standalone="no"?>
<!-- Created with Inkscape (http://www.inkscape.org/) -->

<svg
   version="1.1"
   id="svg1"
   width="500"
   height="500"
   viewBox="0 0 500 500"
   xmlns="http://www.w3.org/2000/svg"
   xmlns:svg="http://www.w3.org/2000/svg">
  <defs
     id="defs1" />
  <path
     style="fill:#000000"
     d="M 228.5636,472.9236 C 185.77867,468.83852 139.45325,449.44102 106.5,421.81282 43.23163,368.76824 14.239355,286.05783 30.558157,205.16265 c 1.368832,-6.78554 4.301929,-17.81054 6.517994,-24.5 C 41.911518,166.06651 54.515575,139.92488 62.708258,127.5 98.326043,73.482675 155.02054,37.680686 219.64739,28.394556 c 15.81851,-2.272938 45.76951,-2.239373 60.85261,0.0682 24.69651,3.778329 45.81884,10.392021 67.45617,21.121447 25.34714,12.569032 42.96433,25.363294 62.0634,45.072764 C 426.80708,111.981 438.64385,128.49902 448.96165,149 465.41711,181.69622 473,213.56944 473,250.04053 473,285.9908 466.25095,315.28438 450.54598,347.5 428.15356,393.43357 393.63075,428.27515 348.60517,450.38206 326.21441,461.3756 305.38348,467.9704 282,471.46839 c -13.13907,1.96551 -40.335,2.70612 -53.4364,1.45521 z m 34.14179,-39.91827 c 45.81149,-3.56302 89.3518,-24.07831 120.30844,-56.68684 21.93075,-23.101 39.16469,-56.32406 46.06095,-88.79485 C 439.83106,236.87807 427.13347,180.56488 395.47549,138.51242 369.50627,104.01654 328.66641,78.879339 283.83379,69.796232 273.96263,67.796329 269.53184,67.5 249.5,67.5 c -25.47036,0 -35.95939,1.455093 -55.4544,7.692923 C 145.28691,90.794264 108.03569,122.78175 85.38425,168.5 65.610393,208.41033 60.842785,252.02973 71.571231,294.87696 c 3.475795,13.88162 8.140235,25.8538 15.997309,41.06017 18.1683,35.16244 44.72977,60.95559 80.93146,78.5904 25.14846,12.2505 48.98939,18.07623 79,19.30432 1.65,0.0675 8.49243,-0.30441 15.20539,-0.82652 z m -23.82292,-42.79807 c -6.72065,-3.51091 -11.38354,-9.48696 -12.82679,-16.43907 -0.76701,-3.69464 -1.01409,-41.65127 -0.82524,-126.77091 0.3005,-135.44148 -0.28213,-124.87892 7.30687,-132.46792 11.9733,-11.9733 30.67433,-9.09586 38.80427,5.97064 l 2.15842,4 0.2869,123.5 c 0.21362,91.96039 -0.0118,124.58794 -0.88278,127.76005 -1.47958,5.38877 -7.64615,12.45257 -13.23111,15.1562 -6.35281,3.07534 -14.04889,2.81289 -20.79054,-0.70899 z M 160.5,323.85161 c -6.15216,-3.34545 -10.00675,-6.80734 -12.58569,-11.3035 l -2.89554,-5.04811 -0.009,-57.28984 c -0.009,-54.49708 0.084,-57.4707 1.90589,-61 2.51987,-4.88139 8.66328,-10.72864 13.30261,-12.66133 4.98633,-2.07725 13.35355,-1.9267 18.32083,0.32964 5.02453,2.28235 12.1062,10.18313 13.44387,14.99886 0.61887,2.22801 1.00841,24.9053 1.01184,58.90479 0.006,61.46693 0.22983,59.2761 -6.79325,66.55261 -5.48829,5.68635 -10.01345,7.67063 -17.41133,7.63486 -3.45941,-0.0167 -7.18984,-0.51981 -8.28984,-1.11798 z M 321,323.4602 c -4.56341,-2.04155 -9.63178,-6.95487 -12.33763,-11.9602 -2.13166,-3.94319 -2.16638,-4.78499 -2.44473,-59.27296 -0.18219,-35.6632 0.0829,-56.62926 0.74704,-59.09588 1.38388,-5.13934 6.14407,-11.51298 10.99713,-14.72458 2.89803,-1.91783 5.73986,-2.77348 10.47335,-3.15344 5.64988,-0.45352 7.21447,-0.17001 12.01009,2.17627 3.03266,1.48374 6.88604,4.35661 8.56306,6.38415 5.88409,7.11393 5.99406,8.33228 5.96783,66.11794 -0.0131,28.91268 -0.43362,54.33534 -0.93445,56.4948 -1.21471,5.23758 -5.63367,11.34041 -10.88264,15.02952 -3.65098,2.56601 -5.34862,3.053 -11.47207,3.29094 -4.89212,0.19008 -8.30456,-0.22072 -10.68698,-1.28656 z"
     id="path1" />
</svg>
