<svg role="img" viewBox="0 0 24 24" xmlns="http://www.w3.org/2000/svg"><title>osu!mania</title><path fill="#FFFFFF" d="M91.5 185.392c-21.55-3.162-38.331-11.186-52.019-24.873-33.306-33.307-33.306-87.731 0-121.038 33.307-33.306 87.731-33.306 121.038 0 33.296 33.297 33.293 87.731-.007 121.03-11.204 11.205-26.01 19.395-41.379 22.89-7.375 1.678-22.393 2.76-27.633 1.99zm32.049-12.164c25.223-8.516 42.533-26.38 50.608-52.228 2-6.401 2.338-9.552 2.307-21.5-.034-13.068-.247-14.61-3.197-23.148-10.771-31.176-37.395-51.576-69.313-53.11C42.07 20.27 2.434 86.628 34.197 140.033c8.09 13.6 23.264 26.24 38.303 31.904 10.723 4.037 17.23 5.055 30 4.69 10.173-.29 13.378-.808 21.049-3.398m-73.53-56.917c-6.608-3.44-10.072-12.234-8.107-20.584 1.335-5.673 3.77-8.699 8.785-10.917 8.235-3.643 17.602-.126 20.939 7.861 3.06 7.326.68 18.543-4.757 22.415-4.127 2.939-12.41 3.541-16.86 1.225m11.576-7.416c2.453-2.71 2.735-14.033.405-16.252-2.732-2.601-5.532-2.799-8.343-.588C51.273 93.93 51 94.806 51 100.573c0 5.094.415 6.842 2 8.427 2.591 2.591 6.195 2.547 8.595-.105m19.655 8.4c-1.572-.303-2.25-1.142-2.25-2.783 0-4.686.745-5.302 5.027-4.16 4.914 1.312 9.35-.036 9.773-2.97.248-1.72-.74-2.457-5.725-4.274-8.969-3.27-11.253-8.023-7.117-14.807 2.342-3.84 8.043-5.723 14.43-4.765 5.89.883 6.855 1.648 6.063 4.805-.64 2.549-.866 2.628-5.843 2.043-4.07-.479-5.463-.264-6.515 1.004-1.889 2.276-.086 4.125 5.36 5.496 10.843 2.73 11.425 15.344.911 19.737-3.147 1.315-9.267 1.607-14.114.673m37.083.073c-3.404-.762-7.071-4.763-8.247-8.995-.591-2.13-1.077-8.486-1.08-14.123L109 84h8.784l.36 11.35c.416 13.088 1.16 14.65 6.978 14.65H129V84h9v15.893c0 14.207-.186 15.966-1.75 16.581-2.253.886-15.09 1.527-17.917.894m30.417-.057c-1.333-.349-1.75-1.508-1.75-4.865 0-3.901.296-4.482 2.574-5.054 1.415-.355 3.665-.148 5 .46 1.904.867 2.426 1.868 2.426 4.651 0 2.887-.477 3.728-2.565 4.522-2.68 1.019-2.848 1.027-5.685.286m-1.083-14.978c-.367-.366-.667-7.566-.667-16V71h9.62l-.376 14.75c-.207 8.113-.557 15.313-.779 16-.417 1.295-6.623 1.759-7.798.583"/></svg>