<?xml version="1.0" encoding="UTF-8" standalone="no"?>
<!-- Created with Inkscape (http://www.inkscape.org/) -->

<svg
   version="1.1"
   id="svg1"
   width="1000"
   height="1000"
   viewBox="0 0 1000 1000"
   xml:space="preserve"
   xmlns="http://www.w3.org/2000/svg"
   xmlns:svg="http://www.w3.org/2000/svg"><defs
     id="defs1" /><g
     id="g2"
     transform="translate(0,-32.907264)"
     style="fill:#ffffff"><path
       style="fill:#ffffff;stroke-width:0.624837"
       d="m 490.786,686.52563 c -2.06197,-0.77137 -8.52904,-4.17413 -14.37127,-7.56171 -50.50682,-29.28593 -145.9047,-84.86562 -172.45514,-100.47396 -14.50278,-8.52582 -18.46598,-12.61498 -21.34652,-22.02501 -1.09582,-3.5798 -1.14763,-8.92472 -1.14763,-118.40671 0,-109.52044 0.0515,-114.82565 1.14866,-118.4067 1.65898,-5.41463 3.831,-9.09054 7.49886,-12.69105 3.78724,-3.7177 6.24897,-5.17622 142.56315,-84.466 63.69275,-37.04812 57.48009,-33.80589 65.59075,-34.23013 10.04909,-0.52563 2.04946,-4.71302 101.55328,53.15796 38.60441,22.45216 91.10516,53.08035 103.08617,60.13901 7.27014,4.28324 11.7368,9.86495 14.40967,18.00691 1.19661,3.64505 1.22312,6.22722 1.21652,118.43699 -0.007,126.02869 0.27902,116.75636 -3.84624,124.49614 -2.28047,4.27861 -6.00987,8.3826 -9.78053,10.76292 -4.0785,2.57465 -123.94262,72.46827 -180.4802,105.23929 -6.58547,3.81716 -13.67632,7.51389 -15.75742,8.21498 -5.2806,1.7789 -12.82889,1.69745 -17.88211,-0.19293 z M 485.7873,547.70866 V 446.49355 l -3.43661,-2.26942 c -3.65057,-2.41071 -15.85044,-9.55442 -91.85111,-53.78393 -75.58814,-43.98945 -78.17417,-45.48274 -78.76511,-45.48274 -0.80563,0 -1.04847,36.54906 -0.83175,125.18379 0.13802,56.44745 0.38063,77.61436 0.89669,78.23617 1.1382,1.37144 13.77166,8.55362 14.23355,8.09182 0.23143,-0.23138 0.56136,-41.21483 0.7332,-91.07433 0.20726,-60.14202 0.52461,-90.72434 0.94286,-90.86373 0.69138,-0.23041 3.2836,1.25127 62.47814,35.71169 55.35461,32.22498 75.23688,43.93634 77.63606,45.7304 l 2.03072,1.51853 0.0889,62.60816 c 0.0489,34.43449 0.25979,75.79152 0.46862,91.90453 l 0.37972,29.29637 6.56079,3.97414 c 3.60844,2.18577 6.98256,3.90094 7.49805,3.81146 0.82859,-0.14382 0.93726,-11.89767 0.93726,-101.3778 z m 35.96024,98.05917 c 3.24712,-1.91701 6.39592,-3.92883 6.99733,-4.4707 1.03186,-0.92972 1.09347,-6.0993 1.09347,-91.75113 0,-49.92125 0.17147,-91.21274 0.38104,-91.75888 0.52729,-1.37411 4.75214,-3.91928 58.35368,-35.1539 78.84562,-45.94481 82.93595,-48.3084 83.60053,-48.3084 0.43585,0 0.71016,29.10631 0.8536,90.57033 0.1452,62.22362 0.41695,90.77588 0.86825,91.22709 0.45925,0.45915 2.53784,-0.45532 6.90822,-3.03923 3.43823,-2.0328 6.65734,-4.18515 7.15357,-4.783 0.77608,-0.93498 0.92906,-14.6824 1.09398,-98.30954 0.10546,-53.4724 0.0106,-99.00055 -0.21086,-101.17366 -0.32626,-3.20209 -0.58448,-3.88132 -1.36208,-3.58293 -1.6319,0.62623 -137.21142,79.59302 -161.14352,93.85628 l -11.93891,7.11544 -0.46258,80.20306 c -0.48467,84.0323 -0.11061,122.84465 1.18393,122.84465 0.39957,0 3.38322,-1.56847 6.63035,-3.48548 z m -60.79295,-51.7951 c 0.12324,-31.03348 -0.0164,-40.70638 -0.59775,-41.40687 -1.15557,-1.39237 -4.91088,-3.67728 -33.30427,-20.26383 -64.65089,-37.76708 -89.02727,-51.75484 -90.19285,-51.75484 -0.53743,0 -0.721,10.41202 -0.721,40.89506 v 40.89506 l 2.03072,1.51957 c 3.76348,2.81621 12.25592,7.41779 12.9258,7.00379 0.45312,-0.28005 0.67838,-9.78778 0.70833,-29.89733 0.0242,-16.21768 0.24073,-29.98448 0.48127,-30.59288 0.37837,-0.95701 2.3383,-0.0192 14.53403,6.95415 15.70308,8.97886 54.71226,31.72325 68.66901,40.03763 l 9.06014,5.39733 0.31242,31.2795 c 0.26058,26.08978 0.46289,31.4607 1.21936,32.37172 1.18852,1.43132 13.28057,8.51747 14.08916,8.25649 0.40585,-0.131 0.68119,-14.393 0.78563,-40.69455 z m 84.97295,37.66643 c 3.21958,-1.78359 6.54016,-3.87899 7.37905,-4.65645 l 1.52525,-1.41355 v -30.85038 -30.85037 l 1.40588,-1.27524 c 1.68742,-1.53061 7.91942,-5.22839 52.74374,-31.29571 38.35167,-22.3032 38.01237,-22.11343 38.55953,-21.56627 0.2154,0.2154 0.39594,13.77097 0.4012,30.12349 0.005,16.35252 0.24778,30.10765 0.53892,30.56697 0.6023,0.95021 4.35044,-0.73739 11.09064,-4.99356 3.0016,-1.89539 3.91269,-2.8378 4.21765,-4.36262 0.5986,-2.99298 0.44195,-79.46726 -0.16474,-80.42463 -0.40927,-0.64583 -9.59859,4.42767 -39.19898,21.64212 -69.00142,40.12858 -83.0097,48.3445 -84.12132,49.33746 -1.02043,0.91153 -1.09346,3.72459 -1.09346,42.11919 0,22.62834 0.19415,41.14244 0.43143,41.14244 0.23728,0 3.06563,-1.4593 6.28521,-3.24289 z M 461.10621,501.78963 v -37.41852 l -1.40588,-1.54768 c -1.25421,-1.3807 -13.92418,-8.90312 -68.26349,-40.52947 -39.20583,-22.81843 -53.70963,-31.09853 -54.47357,-31.09853 -0.67374,0 -0.82299,6.82845 -0.81602,37.33404 0.005,20.53372 0.16391,37.91254 0.35383,38.61961 0.22061,0.82131 2.98172,2.82468 7.64573,5.54744 76.0386,44.39007 115.81067,67.2216 116.43092,66.83826 0.29067,-0.17964 0.52848,-17.16496 0.52848,-37.74515 z m -21.24447,6.45446 c -10.55473,-5.91488 -70.70544,-40.94788 -80.60403,-46.94543 -8.22158,-4.98145 -7.49805,-3.00808 -7.49805,-20.45035 0,-8.31183 0.17865,-16.4158 0.397,-18.00885 l 0.397,-2.89643 3.50824,1.99283 c 31.66222,17.98551 85.58036,49.63091 87.39266,51.29211 1.39564,1.27929 1.40588,1.41998 1.40588,19.30004 0,9.90626 -0.21088,18.00705 -0.46863,18.00175 -0.25775,-0.005 -2.29627,-1.03385 -4.53007,-2.28567 z m 133.40281,12.43773 c 64.31438,-37.23728 87.3858,-50.84778 89.50796,-52.80336 l 1.40589,-1.29553 v -37.40094 c 0,-31.20461 -0.14271,-37.45571 -0.86138,-37.73148 -0.47376,-0.1818 -6.58936,2.96099 -13.59022,6.98398 -27.71101,15.92392 -95.67866,55.546 -104.89236,61.14754 l -5.31112,3.22893 -0.16206,37.76685 c -0.0892,20.77177 -0.0298,38.11261 0.13173,38.53521 0.32707,0.85539 2.65595,-0.41561 33.77156,-18.4312 z M 555.2484,510.12283 c -0.22911,-0.22911 -0.41656,-8.22697 -0.41656,-17.77302 0,-17.1208 0.0191,-17.37764 1.40588,-18.91554 1.98654,-2.20299 89.04718,-52.87148 90.8459,-52.87148 0.7246,0 0.84053,3.01719 0.70223,18.2765 l -0.16565,18.27649 -6.87321,4.13143 c -15.9333,9.57739 -84.31803,49.29218 -84.87599,49.29218 -0.11332,0 -0.39349,-0.18745 -0.6226,-0.41656 z m -45.2142,-94.33412 c 21.17722,-12.04235 149.18355,-86.65887 159.6818,-93.08055 2.18653,-1.33748 4.01417,-2.70189 4.06145,-3.03202 0.0472,-0.33012 -2.72584,-2.26872 -6.16245,-4.30799 -12.06212,-7.1576 -131.19351,-76.59608 -156.06314,-90.96501 -6.57718,-3.8001 -11.48945,-6.26461 -12.05447,-6.0478 -1.68197,0.64544 -162.73162,94.0692 -170.69939,99.02151 -1.45994,0.90742 -2.65495,1.99332 -2.65556,2.41309 -0.002,1.05915 12.40377,8.2969 14.22068,8.2969 1.70316,0 10.48617,-4.94765 60.13386,-33.87465 72.02876,-41.96724 93.21338,-54.25948 95.68234,-55.51904 l 2.51934,-1.28528 3.2293,1.67762 c 4.29127,2.2293 3.26985,1.64198 42.59406,24.49184 79.00036,45.90422 96.53739,56.24516 96.53739,56.92453 0,0.27184 -31.14034,18.65546 -69.20075,40.85251 -82.65324,48.20382 -86.38378,50.41032 -86.38378,51.0932 0,1.04695 12.52567,8.72559 14.2495,8.73541 0.44853,0.002 5.08794,-2.42487 10.30982,-5.39427 z m -32.08536,-10.52025 c 2.70833,-1.37241 53.55593,-30.84877 63.6052,-36.87193 2.14788,-1.28736 3.90523,-2.57839 3.90523,-2.86895 0,-0.663 -9.41312,-6.27576 -60.92165,-36.32566 -53.32914,-31.11206 -62.03351,-36.10597 -62.9325,-36.10597 -0.80061,0 -9.39134,4.86953 -41.10294,23.29866 -25.73198,14.95407 -29.48232,17.2833 -29.19862,18.13443 0.2447,0.73412 5.96401,4.37708 11.03308,7.02762 2.87349,1.50251 3.17423,1.54106 5.25164,0.67306 1.21198,-0.5064 11.68141,-6.45364 23.26539,-13.21608 11.58399,-6.76244 23.01616,-13.31622 25.40483,-14.56395 l 4.34303,-2.2686 2.9131,1.58103 c 1.60221,0.86957 9.94253,5.6768 18.53404,10.68272 8.59152,5.00593 26.81582,15.61353 40.49844,23.57243 28.3911,16.51452 29.79578,17.36967 29.79578,18.1394 0,0.48526 -11.26653,7.22932 -44.51967,26.6491 -4.03801,2.35819 -7.34184,4.61322 -7.34184,5.01115 0,0.39795 0.41221,1.06565 0.91603,1.48378 0.84656,0.70258 12.92111,7.51567 13.31971,7.51567 0.0974,0 1.55166,-0.69656 3.23172,-1.54791 z m 105.11675,-60.99881 c 34.91531,-20.22254 38.62386,-22.50191 38.62386,-23.73923 0,-0.59745 -9.09265,-6.05505 -41.23928,-24.75266 -13.57459,-7.89547 -34.38168,-19.99694 -46.23796,-26.89218 -26.89858,-15.64331 -35.00971,-20.1531 -36.24665,-20.1531 -1.8721,0 -64.97703,36.78879 -64.97703,37.88019 0,0.41125 1.75735,1.8551 3.90523,3.20859 6.5092,4.10174 110.6802,64.88209 116.58861,68.02561 l 2.71198,1.44288 3.65246,-1.84376 c 2.00885,-1.01407 12.45731,-6.94342 23.21878,-13.17634 z m -29.72068,-6.48073 c -3.85707,-2.0462 -44.03705,-25.44536 -73.64031,-42.88505 -7.81308,-4.6028 -14.20985,-8.5664 -14.21505,-8.80802 -0.009,-0.41109 9.80877,-6.35326 23.91267,-14.47325 3.36285,-1.93608 6.57264,-3.52015 7.13288,-3.52015 0.56022,0 3.85411,1.51534 7.31973,3.36742 5.86038,3.13189 77.44446,44.77327 83.03738,48.30392 l 2.51598,1.58827 -1.51103,1.13992 c -2.23875,1.68894 -26.95075,16.05134 -28.88011,16.78489 -1.3952,0.53045 -2.29819,0.29198 -5.67214,-1.49795 z"
       id="path1" /><path
       style="fill:#ffffff;stroke-width:2.68594"
       d="m 524.06058,875.50914 c -2.95454,-1.2819 -8.3888,-5.577 -12.07614,-9.5445 -5.70743,-6.14115 -6.84431,-10.29728 -7.64604,-27.95179 -1.04341,-22.976 1.55922,-27.87025 14.82057,-27.87025 9.95195,0 14.30243,7.30497 14.30243,24.0154 v 14.25935 h 25.5165 25.5165 v -25.5165 -25.5165 h -35.84399 c -45.03896,0 -44.73443,0.2318 -44.73443,-34.04104 0,-20.05012 0.84519,-24.98213 4.9119,-28.66245 12.42919,-11.24824 24.63352,-1.70203 24.63352,19.26835 v 13.88972 h 27.12503 c 47.50326,0 53.45339,6.2682 53.45339,56.31094 v 32.40422 l -9.18772,10.03282 -9.18771,10.0329 -33.11595,0.61013 c -18.21379,0.33555 -35.53332,-0.43883 -38.48786,-1.7208 z m 232.37354,-3.47378 c -14.75655,-9.963 -16.39597,-15.4899 -15.5574,-52.44784 l 0.74558,-32.85872 8.77387,-8.77346 c 8.7504,-8.7499 8.85668,-8.77588 39.61777,-9.67607 l 30.84382,-0.90261 v -14.12529 c 0,-15.3973 5.11868,-23.0157 15.4638,-23.0157 11.28127,0 14.08162,6.63212 14.08162,33.34991 0,34.02152 0.2979,33.79877 -45.20114,33.79877 h -35.37727 v 25.5165 25.5165 h 25.5165 25.51649 V 834.158 c 0,-16.71043 4.35045,-24.0154 14.30243,-24.0154 12.53137,0 15.24299,4.72412 15.24299,26.55631 0,18.8579 -0.46147,20.3591 -9.18772,29.888 l -9.18772,10.0329 -33.11595,0.86813 c -31.08359,0.81487 -33.69052,0.48022 -42.47767,-5.45258 z m -602.76837,-1.83667 c -4.09536,-4.52528 -4.50613,-11.39108 -3.77373,-63.07377 l 0.82191,-57.99575 8.77361,-8.77527 8.77362,-8.77525 31.98819,-0.8919 c 36.08699,-1.00618 46.71638,1.99829 54.66305,15.45094 3.92793,6.64947 4.58239,15.82238 4.58239,64.22747 0,60.96093 -0.88545,64.91163 -14.54828,64.91163 -11.52464,0 -14.99714,-7.6674 -14.99714,-33.11431 v -23.29055 h -25.5165 -25.5165 v 23.75723 c 0,19.60445 -0.85859,24.53428 -4.9119,28.20245 -6.50045,5.88278 -14.6722,5.62853 -20.33872,-0.63292 z m 76.28362,-95.64489 v -14.77271 h -25.5165 -25.5165 v 14.77271 14.77271 h 25.5165 25.5165 z m 50.7323,96.69504 c -12.09866,-6.57548 -13.52893,-14.7444 -12.62094,-72.08395 l 0.83487,-52.72283 8.77357,-8.77469 8.77353,-8.77467 41.21251,-0.8551 c 44.85171,-0.9306 50.02125,0.54568 50.02125,14.28484 0,12.9638 -5.45019,14.77271 -44.50998,14.77271 h -36.06843 v 45.6611 45.6611 h 35.09388 c 19.30165,0 37.43179,1.25119 40.28921,2.78044 5.88819,3.15122 7.07944,15.74867 1.97218,20.85587 -4.90655,4.90658 -84.52017,4.22325 -93.77165,-0.80482 z m 125.19724,1.5744 c -2.95455,-1.28198 -8.39358,-5.57843 -12.08676,-9.54765 -6.42135,-6.90128 -6.75306,-8.9205 -7.5884,-46.19159 -0.76116,-33.96218 -0.27582,-39.63523 3.77373,-44.10994 5.87167,-6.48812 15.09801,-6.58688 20.85703,-0.2232 3.64402,4.02659 4.44522,11.0462 4.44522,38.94624 v 34.03433 h 25.51649 25.5165 v -32.97669 c 0,-36.19821 2.85952,-44.91575 14.73317,-44.91575 13.1771,0 14.81225,5.21436 14.81225,47.23536 v 38.79384 l -9.18772,10.03282 -9.1877,10.0329 -33.11596,0.61013 c -18.21378,0.33555 -35.53331,-0.43883 -38.48785,-1.7208 z m 236.36335,-0.10883 c -2.95454,-1.22205 -8.39358,-5.4732 -12.08676,-9.44692 -6.44214,-6.93158 -6.71487,-8.63235 -6.71487,-41.87429 v -34.64925 l 8.77362,-8.78099 8.77362,-8.78097 31.98818,-0.89189 c 48.62265,-1.35571 59.24544,6.14818 59.24544,41.8507 0,25.75332 -2.304,27.53284 -35.648,27.53284 -23.64114,0 -26.17764,-0.50463 -30.00541,-5.96955 -9.88101,-14.1071 -1.49688,-23.57587 20.87529,-23.57587 13.44206,0 15.2327,-0.63149 15.2327,-5.37189 0,-4.99492 -1.79064,-5.37189 -25.51649,-5.37189 h -25.5165 v 24.17352 24.17353 h 36.06842 c 39.0598,0 44.50999,1.8089 44.50999,14.7727 0,13.13475 -5.26392,14.78692 -46.52444,14.60242 -20.94559,-0.0937 -40.50025,-1.17007 -43.45479,-2.3922 z"
       id="path2" /></g></svg>
